<?xml version="1.0" encoding="utf-8"?>
<!-- Generator: Adobe Illustrator 23.0.1, SVG Export Plug-In . SVG Version: 6.00 Build 0)  -->
<svg version="1.1" id="Layer_1" xmlns="http://www.w3.org/2000/svg" xmlns:xlink="http://www.w3.org/1999/xlink" x="0px" y="0px"
	 viewBox="0 0 57.5 100.3" style="enable-background:new 0 0 57.5 100.3;" xml:space="preserve">
<style type="text/css">
	.st0{fill:#D8D8D8;fill-opacity:0;stroke:#FFFFFF;stroke-width:4;}
</style>
<title>8</title>
<desc>Created with Sketch.</desc>
<path class="st0" d="M55.5,71c0,15.5-11.1,27.3-26.7,27.3S2,86.6,2,71c0-6,1.4-12.9,5.3-17.6c2.9-3.6,6.6-5.2,10.8-6.9
	C9.6,42.9,5.4,35.7,5.4,26.6C5.4,13.1,14.6,2,28.6,2c14.1,0,23.2,11.1,23.2,24.6c0,9.1-4.1,16.2-12.6,19.9c4.2,1.7,7.8,3.4,10.8,6.9
	C54.1,58.1,55.5,65,55.5,71z M33.6,26.5c0-3.5-0.7-9.9-5.3-9.9S23,23,23,26.4S23.7,37,28.3,37C33.1,37,33.6,30,33.6,26.5z
	 M36.4,68.9c0-4.6-1.8-13.4-7.8-13.4c-6.4,0-7.8,8.5-7.8,13.4s1.4,13.4,7.8,13.4C34.6,82.4,36.4,73.5,36.4,68.9z"/>
</svg>
