<?xml version="1.0" encoding="utf-8"?>
<!-- Generator: Adobe Illustrator 23.0.1, SVG Export Plug-In . SVG Version: 6.00 Build 0)  -->
<svg version="1.1" id="Layer_1" xmlns="http://www.w3.org/2000/svg" xmlns:xlink="http://www.w3.org/1999/xlink" x="0px" y="0px"
	 viewBox="0 0 55.7 98.8" style="enable-background:new 0 0 55.7 98.8;" xml:space="preserve">
<style type="text/css">
	.st0{fill:#D8D8D8;fill-opacity:0;stroke:#FFFFFF;stroke-width:4;}
</style>
<title>9</title>
<desc>Created with Sketch.</desc>
<path class="st0" d="M14.9,96.8l17.8-36.7c-3.4,2.9-7,5.2-11.6,5.2C6.5,65.3,2,47.9,2,36.2C2,19.8,8.6,2,27.8,2
	c19,0,25.9,16.1,25.9,32.8c0,13.4-4.2,27-9.9,39.1c-0.8,1.8-2,3.8-2.8,5.6l-8.3,17.4H14.9z M35.3,32.8c0-4.3-1.4-14.8-7.3-14.8
	c-7,0-7.8,11.2-7.8,16.2c0,4.6,1,14.7,7.3,14.7C33.9,48.9,35.3,37.6,35.3,32.8z"/>
</svg>
