<?xml version="1.0" encoding="utf-8"?>
<!-- Generator: Adobe Illustrator 18.1.1, SVG Export Plug-In . SVG Version: 6.00 Build 0)  -->
<!DOCTYPE svg PUBLIC "-//W3C//DTD SVG 1.0//EN" "http://www.w3.org/TR/2001/REC-SVG-20010904/DTD/svg10.dtd">
<svg version="1.0" id="Layer_1" xmlns:sketch="http://www.bohemiancoding.com/sketch/ns"
	 xmlns="http://www.w3.org/2000/svg" xmlns:xlink="http://www.w3.org/1999/xlink" x="0px" y="0px" viewBox="-287 396.6 13.2 19.4"
	 enable-background="new -287 396.6 13.2 19.4" xml:space="preserve">
<g id="by-_x2B_-Sarah-Sarway" transform="translate(52.000000, 9.000000)">
	<g enable-background="new    ">
		<path fill="#202020" d="M-333.6,389.3c-0.8,1.4-2,2.9-2.4,4c-0.7,1.6-1.7,3.2-1.7,5c0,0.4,0,0.6,0.3,0.6c0.2,0,0.4-0.2,0.6-0.3
			c0.9-1.2,1.2-2,1.6-3.2c0-0.2,0.1-0.3,0.1-0.4c0-0.1-0.1-0.8-0.3-1c-0.1,0-0.1-0.2-0.1-0.3c0-0.3,0.2-0.7,0.5-0.7
			c0.2,0,0.4,0.2,0.6,0.4c0.4,0.5,0.5,0.6,0.8,0.6c0.2,0,1,0,2.5-0.5c0.2,0,0.3-0.1,0.4-0.1c0.1,0,0.1,0,0.2,0c0.1,0,0.2,0,0.3,0.1
			c0.1,0,0.2,0.2,0.2,0.4c0,0.1-0.1,0.3-0.1,0.3c-1.2,0.2-2.1,0.8-3.2,0.8c-0.1,0-0.3-0.1-0.5-0.1c0,0-0.1,0.1-0.1,0.1
			c0,0.1,0,0.2,0,0.3c0,0.2,0,0.2-0.1,0.6c-0.1,0.7-0.4,1.2-0.7,1.7c-0.2,0.5-0.3,0.6-0.4,0.8c-0.5,0.7-1.2,1.6-2.1,1.6
			c-0.1,0-0.2,0-0.4-0.1c-0.2-0.1-0.9-0.4-1-0.8c-0.1-0.3-0.1-0.5-0.1-0.8c0-0.6,0.1-1.2,0.3-1.8c0-0.1,0.4-1.1,0.5-1.4
			c1.1-2.5,2.3-4.5,3.7-6.9c0.2-0.4,0.5-0.7,1-0.7c0.1,0,0.3,0,0.5,0.1c0.2,0.1,0.3,0.3,0.3,0.5
			C-332.8,388.6-333.4,388.9-333.6,389.3z"/>
		<path fill="#202020" d="M-329.9,393.3c-0.3,0.5-0.3,0.4-0.4,0.6c-0.6,1.2-0.7,2-1.1,3.3c-0.1,0.2-0.1,0.3-0.1,0.5
			c0,0.2-0.1,0.4-0.1,0.5c0,0.1,0,0.3,0.1,0.3c0.1,0,0.2,0,0.4-0.1c0.3-0.1,0.7-0.4,1.3-1.1c0.1-0.1,0.3-0.3,0.6-0.6
			c0.5-0.6,1.3-1.1,2-3.2c0-0.1,0.3-0.5,0.4-0.5c0.2,0,0.2,0.1,0.5,0.1c0.5,0,0.6,0.4,0.6,0.6c0,0.3-0.2,0.6-0.4,0.8l-0.3,0.5
			c-0.4,0.6-0.7,1.3-1,2.1c-0.1,0.4-0.8,2-0.9,2.4c-0.1,0.4-0.2,0.6-0.2,0.6c0,0,0,0,0.1,0s0.1,0,0.1,0c0.1,0,0.3,0.1,0.3,0.2
			c0,0.2,0,0.3-0.1,0.4c-1.1,1.4-1.6,3-1.9,4.5c-0.1,0.6-0.1,1.6-1,1.7c-0.1,0-0.2,0.1-0.4,0.1c-0.2,0-0.6,0-0.6-0.6
			c0-0.3,0.1-0.7,0.3-1.3c0.4-0.8,0.8-1.8,1.4-2.7c0-0.3,0.5-1.9,1-3.2c0.3-0.8,0.3-1,0.3-1c0,0,0-0.1,0-0.1c0,0-0.1,0-0.2,0.2
			c-0.6,0.6-1.6,1.2-1.8,1.2c-0.7,0-1.2-0.2-1.5-0.6c-0.1-0.1-0.1-0.1-0.1-0.4c0-2.2,1-3.7,1.6-5.8c0.1-0.3,0.4-0.5,0.6-0.5
			c0.1,0,0.3,0.1,0.4,0.1s0.4,0.1,0.4,0.4C-329.7,392.9-329.7,393.1-329.9,393.3z"/>
	</g>
</g>
</svg>
