<?xml version="1.0" encoding="utf-8"?>
<!-- Generator: Adobe Illustrator 18.1.1, SVG Export Plug-In . SVG Version: 6.00 Build 0)  -->
<!DOCTYPE svg PUBLIC "-//W3C//DTD SVG 1.0//EN" "http://www.w3.org/TR/2001/REC-SVG-20010904/DTD/svg10.dtd">
<svg version="1.0" id="Layer_1" xmlns:sketch="http://www.bohemiancoding.com/sketch/ns"
	 xmlns="http://www.w3.org/2000/svg" xmlns:xlink="http://www.w3.org/1999/xlink" x="0px" y="0px"
	 viewBox="-114.6 253.4 554.9 571.2" enable-background="new -114.6 253.4 554.9 571.2" xml:space="preserve">
<path fill="#202020" d="M281.2,620.6c32.6-40.8,53-89.8,53-142.8c0-122.4-102-224.4-224.4-224.4s-224.4,102-224.4,224.4
	s102,224.4,224.4,224.4c53,0,102-20.4,142.8-49l159.1,171.4l28.6-28.6L281.2,620.6z M109.8,661.4c-102,0-183.6-81.6-183.6-183.6
	S7.8,294.2,109.8,294.2s183.6,81.6,183.6,183.6c0,44.9-16.3,81.6-40.8,114.2c-8.2,12.2-16.3,20.4-28.6,28.6
	C191.4,645.1,154.7,661.4,109.8,661.4z"/>
</svg>
