<?xml version="1.0" encoding="utf-8"?>
<!-- Generator: Adobe Illustrator 18.1.1, SVG Export Plug-In . SVG Version: 6.00 Build 0)  -->
<!DOCTYPE svg PUBLIC "-//W3C//DTD SVG 1.0//EN" "http://www.w3.org/TR/2001/REC-SVG-20010904/DTD/svg10.dtd">
<svg version="1.0" id="Layer_1" xmlns="http://www.w3.org/2000/svg" xmlns:xlink="http://www.w3.org/1999/xlink" x="0px" y="0px"
	 viewBox="0 0 92.8 14.2" enable-background="new 0 0 92.8 14.2" xml:space="preserve">
<polygon fill="#C4C4C4" points="14.5,12.6 10.4,0 9.3,0 5.2,12.6 1.2,0 0,0 4.6,14.2 5.7,14.2 9.8,1.7 14,14.2 15.1,14.2 19.7,0 
	18.5,0 "/>
<polygon fill="#C4C4C4" points="34.4,14.2 44.1,14.2 44.1,13.1 35.4,13.1 35.4,7.7 42.8,7.7 42.8,6.7 35.4,6.7 35.4,1.1 44.1,1.1 
	44.1,0 34.4,0 "/>
<polygon fill="#C4C4C4" points="60.5,0 59.4,0 59.4,14.2 68.7,14.2 68.7,13.1 60.5,13.1 "/>
<polygon fill="#C4C4C4" points="84.6,0 83.5,0 83.5,14.2 92.8,14.2 92.8,13.1 84.6,13.1 "/>
</svg>
