<?xml version="1.0" encoding="utf-8"?>
<!-- Generator: Adobe Illustrator 18.1.1, SVG Export Plug-In . SVG Version: 6.00 Build 0)  -->
<!DOCTYPE svg PUBLIC "-//W3C//DTD SVG 1.0//EN" "http://www.w3.org/TR/2001/REC-SVG-20010904/DTD/svg10.dtd">
<svg version="1.0" id="Layer_1" xmlns="http://www.w3.org/2000/svg" xmlns:xlink="http://www.w3.org/1999/xlink" x="0px" y="0px"
	 viewBox="0 0 90.4 14.7" enable-background="new 0 0 90.4 14.7" xml:space="preserve">
<path fill="none" d="M58.6,1.1c-3.5,0-6.3,2.8-6.3,6.3c0,3.5,2.8,6.3,6.3,6.3c3.4,0,6.3-2.8,6.3-6.3C64.9,3.9,62.1,1.1,58.6,1.1z"/>
<path fill="none" d="M32.6,1.1c-3.5,0-6.3,2.8-6.3,6.3c0,3.5,2.8,6.3,6.3,6.3c3.4,0,6.3-2.8,6.3-6.3C38.9,3.9,36.1,1.1,32.6,1.1z"/>
<path fill="none" d="M83.8,1.3h-4.4v12.1h4.4c3.6,0,5.6-2.6,5.6-6S87.3,1.3,83.8,1.3z"/>
<path fill="#C4C4C4" d="M7.6,8.1h5.2v2.5c-1.1,1.8-3.1,3-5.3,3c-3.5,0-6.3-2.8-6.3-6.3c0-3.4,2.8-6.3,6.3-6.3c2,0,3.9,1,5,2.5
	L13.3,3C12,1.2,9.8,0,7.4,0C3.3,0,0,3.3,0,7.3c0,4.1,3.3,7.4,7.4,7.4c2.2,0,4.2-1,5.4-2.7v2.4h1V7.2H7.6V8.1z"/>
<path fill="#C4C4C4" d="M32.6,0c-4.1,0-7.4,3.3-7.4,7.3c0,4.1,3.3,7.4,7.4,7.4c4.1,0,7.4-3.3,7.4-7.4C40,3.3,36.7,0,32.6,0z
	 M32.6,13.6c-3.5,0-6.3-2.8-6.3-6.3c0-3.4,2.8-6.3,6.3-6.3c3.4,0,6.3,2.8,6.3,6.3C38.9,10.8,36.1,13.6,32.6,13.6z"/>
<path fill="#C4C4C4" d="M58.6,0c-4.1,0-7.4,3.3-7.4,7.3c0,4.1,3.3,7.4,7.4,7.4c4.1,0,7.4-3.3,7.4-7.4C66,3.3,62.7,0,58.6,0z
	 M58.6,13.6c-3.5,0-6.3-2.8-6.3-6.3c0-3.4,2.8-6.3,6.3-6.3c3.4,0,6.3,2.8,6.3,6.3C64.9,10.8,62.1,13.6,58.6,13.6z"/>
<path fill="#C4C4C4" d="M83.8,0.3h-5.5v14.2h5.5c4.3,0,6.6-3.1,6.6-7.1C90.4,3.4,88.1,0.3,83.8,0.3z M83.8,13.4h-4.4V1.3h4.4
	c3.6,0,5.6,2.6,5.6,6S87.3,13.4,83.8,13.4z"/>
</svg>
