<?xml version="1.0" encoding="utf-8"?>
<!-- Generator: Adobe Illustrator 18.1.1, SVG Export Plug-In . SVG Version: 6.00 Build 0)  -->
<!DOCTYPE svg PUBLIC "-//W3C//DTD SVG 1.0//EN" "http://www.w3.org/TR/2001/REC-SVG-20010904/DTD/svg10.dtd">
<svg version="1.0" id="Layer_1" xmlns:sketch="http://www.bohemiancoding.com/sketch/ns"
	 xmlns="http://www.w3.org/2000/svg" xmlns:xlink="http://www.w3.org/1999/xlink" x="0px" y="0px" viewBox="-165 353.4 289.8 76.6"
	 enable-background="new -165 353.4 289.8 76.6" xml:space="preserve">
<title>Page 1</title>
<desc>Created with Sketch.</desc>
<g id="Clip-14">
</g>
<g>
	<path fill="none" d="M93,386.7c-3.5,0-6.3,2.8-6.3,6.3c0,3.5,2.8,6.3,6.3,6.3c3.4,0,6.3-2.8,6.3-6.3
		C99.3,389.5,96.5,386.7,93,386.7z"/>
	<path fill="none" d="M67,386.7c-3.5,0-6.3,2.8-6.3,6.3c0,3.5,2.8,6.3,6.3,6.3c3.4,0,6.3-2.8,6.3-6.3
		C73.3,389.5,70.5,386.7,67,386.7z"/>
	<path fill="none" d="M118.1,387h-4.4V399h4.4c3.6,0,5.6-2.6,5.6-6S121.7,387,118.1,387z"/>
	<polygon fill="#C4C4C4" points="-150.5,398.7 -154.6,386.2 -155.7,386.2 -159.8,398.7 -163.8,386.2 -165,386.2 -160.4,400.3 
		-159.3,400.3 -155.2,387.9 -151,400.3 -149.9,400.3 -145.3,386.2 -146.5,386.2 	"/>
	<polygon fill="#C4C4C4" points="-130.6,400.3 -120.9,400.3 -120.9,399.3 -129.6,399.3 -129.6,393.9 -122.2,393.9 -122.2,392.9 
		-129.6,392.9 -129.6,387.2 -120.9,387.2 -120.9,386.2 -130.6,386.2 	"/>
	<polygon fill="#C4C4C4" points="-104.5,386.2 -105.6,386.2 -105.6,400.3 -96.3,400.3 -96.3,399.3 -104.5,399.3 	"/>
	<polygon fill="#C4C4C4" points="-80.4,386.2 -81.5,386.2 -81.5,400.3 -72.2,400.3 -72.2,399.3 -80.4,399.3 	"/>
	<polygon fill="#C4C4C4" points="-5.9,353.4 -31.5,353.4 -31.5,378.9 -57,378.9 -57,404.4 -31.5,404.4 -31.5,430 -5.9,430 
		-5.9,404.4 19.6,404.4 19.6,378.9 -5.9,378.9 	"/>
	<path fill="#C4C4C4" d="M41.9,393.7h5.2v2.5c-1.1,1.8-3.1,3-5.3,3c-3.5,0-6.3-2.8-6.3-6.3c0-3.4,2.8-6.3,6.3-6.3c2,0,3.9,1,5,2.5
		l0.9-0.6c-1.3-1.8-3.5-3-5.9-3c-4.1,0-7.4,3.3-7.4,7.3c0,4.1,3.3,7.4,7.4,7.4c2.2,0,4.2-1,5.4-2.7v2.4h1v-7.3h-6.2V393.7z"/>
	<path fill="#C4C4C4" d="M67,385.6c-4.1,0-7.4,3.3-7.4,7.3c0,4.1,3.3,7.4,7.4,7.4c4.1,0,7.4-3.3,7.4-7.4
		C74.4,389,71.1,385.6,67,385.6z M67,399.3c-3.5,0-6.3-2.8-6.3-6.3c0-3.4,2.8-6.3,6.3-6.3c3.4,0,6.3,2.8,6.3,6.3
		C73.3,396.5,70.5,399.3,67,399.3z"/>
	<path fill="#C4C4C4" d="M93,385.6c-4.1,0-7.4,3.3-7.4,7.3c0,4.1,3.3,7.4,7.4,7.4c4.1,0,7.4-3.3,7.4-7.4
		C100.4,389,97.1,385.6,93,385.6z M93,399.3c-3.5,0-6.3-2.8-6.3-6.3c0-3.4,2.8-6.3,6.3-6.3c3.4,0,6.3,2.8,6.3,6.3
		C99.3,396.5,96.5,399.3,93,399.3z"/>
	<path fill="#C4C4C4" d="M118.2,385.9h-5.5v14.2h5.5c4.3,0,6.6-3.1,6.6-7.1C124.8,389,122.5,385.9,118.2,385.9z M118.1,399h-4.4V387
		h4.4c3.6,0,5.6,2.6,5.6,6S121.7,399,118.1,399z"/>
</g>
</svg>
