<?xml version="1.0" encoding="utf-8"?>
<!-- Generator: Adobe Illustrator 23.0.1, SVG Export Plug-In . SVG Version: 6.00 Build 0)  -->
<svg version="1.1" id="Layer_1" xmlns="http://www.w3.org/2000/svg" xmlns:xlink="http://www.w3.org/1999/xlink" x="0px" y="0px"
	 viewBox="0 0 582.5 231.2" style="enable-background:new 0 0 582.5 231.2;" xml:space="preserve">
<style type="text/css">
	.st0{fill-rule:evenodd;clip-rule:evenodd;fill:#E66A54;}
</style>
<title>Group 2</title>
<desc>Created with Sketch.</desc>
<path id="Fill-1" class="st0" d="M181.8,29.6c-6.2,16.2-10.4,28.7-21.2,64.1c-14,45.8-21.1,64.5-32.3,85.7
	c-7.8,14.7-13,21.2-19,23.5c-6.3,2.6-11.1,0.3-15.7-7.6c-3.6-6.1-5.1-10.3-7.4-21.2c-2.2-10.5-2.3-11.7-3.4-30.5
	c-0.6-9.4-2-19.2-3-19.8c-1.7-1.1-8.6,10.1-24,38.8c-21.9,40.7-29.7,53.7-36.1,61.1c-5.6,6.6-8.8,8.3-12.5,7.2
	c-1.3-0.1-2.3-1-3.2-2.2c-1.4-1.6-1.5-2.2-2.7-7.9c-1.1-4.9-1.4-7.4-1.3-11.1c-0.1-10.1,1-23.6,4-57.5c1.5-16,4-51.1,4.4-63.4
	c0.4-7.9,0.3-16,0.1-16.1c-0.2,0-1.1-0.2-2.1-0.4c-1.9,0-2.1-0.4-2.4-1.6c-0.4-0.9-0.4-1.8,0.2-2.9c1.6-3.2,4.2-4.4,6.1-2.5
	c1,0.8,2.1,6,2.3,10.7c0.3,10.3-2.2,49.5-5.7,86.2c-2.6,28.5-3.4,42.9-3,50.9c0.2,4.9,2.1,11.6,3.4,13.1c0.8,0.9,1.5,1.3,2.1,1.2
	c2.3-0.1,9.6-8.3,15.3-17.3c4-6.2,12.9-22,30.5-54.5c10.4-19.2,18.5-32.5,20.8-34.2c1.9-1.7,4.3-2,6-0.9c2.5,2,3.5,6.9,4.2,19.6
	c1.4,28,4,40.7,9.8,51.5c3.3,5.7,6.2,8.8,8.7,8.9c1.7,0.1,5-1.9,7.8-4.3c4.7-4.3,12.4-17.3,20.1-33.9c8.1-17.4,12.7-31.3,29.6-85.8
	c8.3-27,17.2-52.1,18.3-52.5c0.4-0.1,1,0,1.7,0.1C183.4,24.3,183.3,25.8,181.8,29.6"/>
<path id="Fill-3" class="st0" d="M287.3,91c0.2-0.3,0.8-1.7,1.5-3.2c0.8-1.5,3.6-6.4,6.6-11c6.7-10.6,9.8-17.1,13.3-27.9
	c1.7-4.6,2.9-11.6,2.4-11.9c-0.5-0.3-4.4,3.6-7,7.1c-2.2,3.4-5,8.9-6.9,14C294,66.7,285.9,93.1,287.3,91L287.3,91z M229.9,97.9
	c0.4-0.3,3.7-5.5,7.9-11.3c10-15.1,17-27.4,24.6-44c8-17.2,11.1-27.5,10.6-35.4c-0.1-2.7-0.9-3-2.8-1.4
	c-3.3,2.5-12.4,17.4-18.7,30.8c-5.1,10.9-12.9,31.7-18.2,48C229.6,95.5,228.9,98.8,229.9,97.9L229.9,97.9z M177.2,126.2l1.8-0.8
	c0.9-0.2,3.2-1.8,5.1-3.3c2.7-2.1,3.4-3,3.3-3.6c-0.1-0.6-0.6-0.8-1.9-0.7c-2.2,0.2-4.4,2.3-6.6,5.9L177.2,126.2z M342.1,97.2
	c-7.3,9.6-20,23.8-28.7,32.3c-6.3,6.1-15.6,13.9-18.7,15.4c-3.2,1.8-7.3,2.5-9.5,1.8c-1.9-0.5-4.8-2.3-5.2-3.2c0,0-0.4-1-0.9-2.1
	c-1.8-4.3-2.1-16.1-0.9-27.1l0.5-4.8l-9.4,11.4c-5.3,6.5-11.8,14.2-14.5,17.2c-7.6,8.3-20.8,21.2-24.7,23.9c-2.9,2-7,3.1-9.2,2.2
	c-3.6-1.2-4.6-3.7-4.5-12.7c-0.1-8.7,1-18.4,3.5-32.8c0.3-1.6,0.4-2.5,0-2c-12.7,14.8-25,26.6-33.2,31.3c-3.2,1.8-8.1,3.1-10.8,2.8
	c-2.5-0.1-5.1-2-6.2-4c-1.2-2.6-1.3-6.9,0-12.3c0.8-2.6,1.2-5,1-5.6c-0.2-0.9,0.8-2.6,1.6-2.8c0.2,0,0.9-1.1,1.5-2.6
	c1.2-2.7,4.2-6.7,6.3-8.3c1.7-1.5,4.9-2.2,7.1-1.5c1.7,0.5,4.3,2.4,4.5,3.3c1,4.5-6.7,11.7-14.2,13.3l-2.6,0.5l-0.8,2.6
	c-2.1,6-1.7,10.9,0.7,12.8c0.8,0.7,1.5,0.8,3.8,0.1c4.1-0.9,7.9-3,13.6-7.8c7.8-6.4,18.3-17.1,26.8-27.5c3-3.6,3-3.6,5.3-11.9
	c5.5-19.5,16.3-49.6,23.6-65.3c6-12.9,14.2-26.6,18.3-30.6c3.7-3.7,6.7-4.1,8.9-1.5c2.1,2.5,2.1,8.9,0.1,17.2
	c-2.6,10-12.1,31.5-22.3,49.8c-5.8,10.6-18,28.9-25.9,38.9c-1.1,1.3-1.7,3.5-2.9,9.6c-3.8,19-5,37.1-2.9,41.8l0.6,1.7l2.1-0.7
	c2.9-1.1,6.9-4.2,15.6-12.8c9.1-8.9,11.2-11.4,25-27.5c16-19.3,15-17.8,17.5-27.9c3.6-13.7,10.2-34.9,13.8-42.4
	c3.9-8,10.7-16.9,13.9-17.5c2.1-0.5,3.1-0.2,4,0.9c2.1,2.5,0.5,11.5-4.2,23.5c-3.2,8.3-6.3,14.3-11.9,22.9
	c-2.3,3.9-5.4,9.2-6.7,11.7c-1.2,2.7-3.4,6.1-4.8,8c-2.7,3.3-3,4.7-4.1,14.1c-1.5,11.7-1.1,22.2,0.8,26.9c1.4,3.5,4.3,3.5,9.3,0.7
	c9.4-5.4,30.2-26.2,44.5-44.2c4-5.3,5-6,6.1-5.1C344.9,92.6,344.6,94,342.1,97.2L342.1,97.2z"/>
<path id="Fill-5" class="st0" d="M430.7,78.9c-4.7,5.3-19.5,16.7-30.4,23.3c-7.9,4.8-15.2,5.3-18.6,1.1c-0.9-1.1-1.2-2.6-2.7-9.5
	c-1.1-4.9-1.9-8.8-2.4-9.3c-0.7-1.2-0.9-1.1-2.4-0.6c-2.2,1.1-8.6,5.9-12.5,9.8c-4.4,4.5-9.6,10.6-14.9,17.3
	c-3.8,5.1-6.4,7.9-8.1,8.2c-0.4,0.1-1.4-0.2-2.3-0.4c-3.3-0.9-3-4.5,1.7-18.1c1.2-3.8,2.9-9.4,3.9-12.2c1.8-6.2,1.9-6.7,4-6.2
	c1.2,0.2,1.5,0.6,1.7,1.7s0.2,1.8-0.4,2.3c-0.6,0.6-1.5,3.2-2.3,6.1c-0.9,2.9-2.4,7.5-3.2,10.1c-1,2.7-2.2,6.5-2.6,8.6l-1,3.8
	l1.4-1.9c0.9-0.9,3.4-4.1,5.8-7.3c12.1-15.6,23.8-25.9,29.3-26.2c2.4-0.1,4.2,0.7,5.2,2.5c0.9,1.1,1.3,3.1,2.7,9.5
	c2.2,11.4,2.8,11.9,9.1,10.1c1.5-0.5,4.3-2,6.3-3.1c8.9-5.5,23.7-16.7,28.7-21.8c3-2.9,4.6-3.5,5.4-1.1
	C432.5,76.7,432.3,77,430.7,78.9"/>
<path id="Fill-7" class="st0" d="M497.8,78.7c-0.5-0.3-4.7,5.3-5.6,7.5c-1,2.5-1.1,3.4-0.3,3.7c0.5,0.3,0.5,0.3,1.9-0.6
	c0.6-0.6,1.4-1.9,1.9-2.6C496.6,84.5,498.3,78.8,497.8,78.7 M435.4,69.4c0.1,0.4,2.7-1.9,5.5-4.8c0.9-0.9,1.6-1.9,1.4-1.9
	C441.5,62.3,435.2,68.5,435.4,69.4 M522.7,57.7c-0.3,0.5-2,2-4,3.1c-4.5,3.2-9.7,7-13.4,10.5l-3.2,2.7v2.9
	c0.2,9.1-5.1,17.9-10.4,17.2c-1.6-0.3-3.8-1.9-4-3.2c-0.6-3.7,1.8-9.3,6.7-14.9c2-2.2,2.7-3.3,2.5-4.1c-0.4-1.7-4.5-9.6-8.1-14.8
	c-1.7-2.6-3.1-5.2-3.2-5.4c-0.3-1.3-1.2-0.4-4.2,3.6c-8.6,11.9-20,21.7-33.2,29.3c-7.2,4.2-15,5.2-18.4,2.8
	c-2.3-1.5-3.1-4.9-2.1-9.6c2.1-9,7-16.3,13.1-19.4c4.7-2.3,8.4-1.8,8.2,1.6c-0.3,3-8.9,12.7-14.7,16.1c-2.4,1.4-2.8,1.7-2.8,3.5
	c-0.6,2.6-0.3,3.7,1.2,4.7c3.6,2.1,14-2.8,27-12.9c8.8-6.8,13.2-11.6,20.7-21.7c2.4-3.2,4.1-5.1,4.7-5.3c1.3-0.3,2.9,0.9,3.3,2.7
	c0.1,0.6,1,2.7,2,4.1c6.1,9.9,7.6,12.5,8.8,15.1l1.5,3l4.9-4.2c2.7-2.1,7.1-5.6,9.9-7.3c4.1-2.9,5.1-3.3,6.1-3.1
	C522.8,55.2,523.3,56.4,522.7,57.7"/>
<path id="Fill-9" class="st0" d="M539.4,81.2l-1.5-1.9l-4.2,4.5c-11.5,12.1-15.4,17.9-14.7,21.5c0.1,0.6,0.5,1.5,0.8,1.6
	c0.5,0.3,2.2-0.2,4.8-1.7c3-1.8,8.7-6.6,11.3-9.1C541.7,89.9,542.6,85.9,539.4,81.2 M582.5,44c-0.2,1.2-1,1.8-3.9,3.7
	c-8.5,5.2-26.1,18.3-34.5,26l-2.8,2.4l1.6,2.3c5.5,8,1.7,17.3-10.6,26.7c-6.5,5-9.6,6.3-12.8,5.9c-4-0.7-5.1-4.1-4-9.4
	c1.4-5,6.9-12.7,16.5-22.3c1.3-1.2,2.4-2.5,2.3-2.7c0,0-1.6-1-3.3-1.8c-7.5-3.5-10.2-5.7-10.9-9.1c-1.7-7.7,7-25,13.2-26.3
	c3.2-0.7,5.2,1.3,4,3.9c-0.2,0.9-0.7,1-2,0.9c-1.6-0.3-1.9-0.3-3.1,1.1c-3.4,3.2-7.9,12.4-8,16.9c-0.1,3.8,1.6,5.5,10.1,9.7l3.5,1.7
	l2.1-2.4C543.6,67.7,560,55,566,50.6c7-4.9,12.7-8.5,14.2-8.9C581.7,41.4,582.6,42.6,582.5,44"/>
</svg>
