<?xml version="1.0" encoding="utf-8"?>
<!-- Generator: Adobe Illustrator 23.0.1, SVG Export Plug-In . SVG Version: 6.00 Build 0)  -->
<svg version="1.1" id="Layer_1" xmlns="http://www.w3.org/2000/svg" xmlns:xlink="http://www.w3.org/1999/xlink" x="0px" y="0px"
	 viewBox="0 0 104.8 100.3" style="enable-background:new 0 0 104.8 100.3;" xml:space="preserve">
<style type="text/css">
	.st0{fill:#D8D8D8;fill-opacity:0;stroke:#FFFFFF;stroke-width:4;}
</style>
<title>10</title>
<desc>Created with Sketch.</desc>
<path class="st0" d="M28.9,96.8H11V19.6H2V3.4h26.9V96.8z M102.8,49.7c0,17.1-3.5,48.6-26.5,48.6c-22.7,0-25.9-32.1-25.9-48.9
	C50.4,32.5,54.5,2,77,2C99,2,102.8,33.4,102.8,49.7z M84.8,54.8v-8.4c0-5.7,0-27.9-8.4-27.9c-8.1,0-8.3,21.6-8.3,27.2v9.8
	c0,5.5,0.4,25.8,8.3,25.8C84.7,81.2,84.8,60.4,84.8,54.8z"/>
</svg>
