<?xml version="1.0" encoding="utf-8"?>
<!-- Generator: Adobe Illustrator 23.0.1, SVG Export Plug-In . SVG Version: 6.00 Build 0)  -->
<svg version="1.1" id="Layer_1" xmlns="http://www.w3.org/2000/svg" xmlns:xlink="http://www.w3.org/1999/xlink" x="0px" y="0px"
	 viewBox="0 0 56 98.8" style="enable-background:new 0 0 56 98.8;" xml:space="preserve">
<style type="text/css">
	.st0{fill:#D8D8D8;fill-opacity:0;stroke:#FFFFFF;stroke-width:4;}
</style>
<title>2</title>
<desc>Created with Sketch.</desc>
<path class="st0" d="M21.7,35.9H4.8c-0.1-1.7-0.3-3.4-0.3-5C4.5,13.3,9.7,2,29,2C44.4,2,54,9.8,54,25.8C54,37,49.3,45,44.2,54.6
	l-13.6,26h21.7v16.1h-49l21.7-39.9c4.5-8.3,11.3-20.7,11.3-30.2c0-4.6-1.3-11.8-7.3-11.8c-7.1,0-7.6,10.2-7.6,15.3
	C21.6,32.1,21.6,33.9,21.7,35.9z"/>
</svg>
