<?xml version="1.0" encoding="utf-8"?>
<!-- Generator: Adobe Illustrator 23.0.1, SVG Export Plug-In . SVG Version: 6.00 Build 0)  -->
<svg version="1.1" id="Layer_1" xmlns="http://www.w3.org/2000/svg" xmlns:xlink="http://www.w3.org/1999/xlink" x="0px" y="0px"
	 viewBox="0 0 174.7 80.6" style="enable-background:new 0 0 174.7 80.6;" xml:space="preserve">
<style type="text/css">
	.st0{fill-rule:evenodd;clip-rule:evenodd;fill:#E36853;}
</style>
<title>Group 6</title>
<desc>Created with Sketch.</desc>
<g id="Group-13" transform="translate(0.000000, 6.000000)">
	<g id="Clip-12">
	</g>
	<path id="Fill-11" class="st0" d="M39.1,67.2c-0.4,0.4-10.9,3.3-17.2,4.6C10.3,74.5,4,75.2,2.1,74.2C0.8,73.6,0,72.6,0,71.6
		c0-1.6,1.5-4.3,7-12.1c8-11.2,12.2-17.9,18-28.8c4.6-8.6,6-13.1,6-18.6C30.9,9,30.8,8.6,30,7c-0.9-1.6-1.2-2-2.7-2.8
		c-0.9-0.4-2.4-0.8-3.4-1C19.8,2.9,13.4,5.4,9.1,9.1c-1.2,1.1-1.4,1.5-1.3,1.8c0.6,0.9,0.2,1.6-1.7,3c-1.7,1.2-2.6,1.4-3.4,0.8
		C2,14.1,2.2,12.9,3.5,11c1.7-2.4,4.3-4.8,7.4-6.6c4.8-3,8.2-4.1,12.2-3.9c4.4,0.2,7.9,2.1,9.7,5.6c0.6,1.3,0.9,2.2,1,4.6
		c0.6,6.6-1.8,13.2-9.5,26.9C19.7,45.7,15.5,52.3,7.8,63c-4,5.8-5.2,7.6-4.9,8.4c0.5,1.3,14-1,29.3-5.3c3.1-0.8,5.7-1.4,6.2-1.4
		C39.7,64.7,40.1,66.3,39.1,67.2"/>
</g>
<path id="Fill-14" class="st0" d="M80.3,22.9c-1.1-4.7-4-10.7-6.9-14.3c-0.8-1-1.7-1.7-2-1.7c-0.1,0-0.6-0.4-0.8-0.7
	c-0.2-0.4-0.6-0.9-0.9-0.9c-1.9,0-8,8.7-12.2,17.6c-6,12.4-9.3,25.4-9.1,35.3c0.1,4.4,0.6,7.4,2,10c2.1,4.5,5.1,6,10.1,5
	c4.1-0.8,8-4,11.1-8.9c3.4-5.4,7.1-14.9,8.5-21.8C81.2,35.8,81.4,27.9,80.3,22.9 M83.4,23.2c0.7,3.5,0.8,10.8,0.3,15
	c-0.7,4.1-2,9.9-3.9,15C75.4,65.4,69.5,73,62.6,75.5c-2.3,0.8-5.7,0.8-8,0.1c-4.2-1.4-7.3-5.5-8.6-11.5C43.2,52.2,49.7,28.7,60.5,12
	c1.7-2.7,3.2-4.9,3.2-4.9C63.7,7,63.5,7,63.3,7c-0.6,0-1.1-1-0.8-1.8c0.4-1.3,3.6-3.6,5.1-3.6c1.3,0,4,0.8,4.8,1.5
	C77.3,7.9,81.9,16.5,83.4,23.2"/>
<path id="Fill-16" class="st0" d="M129.9,71.5c-0.4,0.5-10.9,3.3-17.2,4.6c-11.6,2.7-17.9,3.4-19.9,2.4c-1.3-0.6-2.1-1.6-2.1-2.6
	c0-1.6,1.5-4.3,7-12.1c8.1-11.2,12.2-17.9,18.1-28.8c4.6-8.6,6-13.1,6-18.6c-0.1-3.1-0.2-3.5-1-5.1c-0.9-1.6-1.2-2-2.7-2.8
	c-0.9-0.4-2.4-0.8-3.4-1c-4.1-0.4-10.6,2.1-14.8,5.9c-1.2,1.1-1.5,1.5-1.3,1.8c0.6,0.9,0.2,1.6-1.7,3c-1.7,1.2-2.6,1.4-3.4,0.8
	c-0.7-0.6-0.5-1.8,0.8-3.7c1.7-2.4,4.3-4.8,7.4-6.6c4.8-3,8.2-4.1,12.2-3.9c4.4,0.2,7.9,2.1,9.7,5.6c0.6,1.3,0.9,2.2,1,4.6
	c0.6,6.6-1.8,13.2-9.5,26.9c-4.6,8.2-8.7,14.8-16.5,25.5c-4,5.8-5.2,7.6-4.9,8.4c0.5,1.3,14-1,29.3-5.3c3.1-0.8,5.7-1.4,6.2-1.4
	C130.4,69,130.9,70.6,129.9,71.5"/>
<g id="Group-20" transform="translate(137.000000, 0.000000)">
	<g id="Clip-19">
	</g>
	<path id="Fill-18" class="st0" d="M34,21.2c-1.1-4.7-4-10.7-6.9-14.3c-0.8-1-1.7-1.7-2-1.7c-0.1,0-0.6-0.4-0.8-0.7
		c-0.2-0.4-0.6-0.9-0.9-0.9c-1.9,0-8,8.7-12.2,17.6c-6,12.4-9.3,25.4-9.1,35.3c0.1,4.4,0.6,7.4,2,10c2.1,4.5,5.1,6,10.1,5
		c4.1-0.8,8-4,11.1-8.9c3.4-5.4,7.1-14.9,8.5-21.8C35,34.2,35.1,26.2,34,21.2 M37.1,21.6c0.7,3.5,0.8,10.8,0.3,15
		c-0.7,4.1-2,9.9-3.9,15c-4.4,12.2-10.3,19.8-17.2,22.3c-2.3,0.8-5.7,0.8-8,0.1c-4.1-1.3-7.2-5.4-8.5-11.4
		c-2.9-12,3.6-35.5,14.4-52.2c1.7-2.7,3.2-4.9,3.2-4.9c0-0.1-0.1-0.1-0.4-0.1c-0.6,0-1.1-1-0.8-1.8C16.6,2.3,19.8,0,21.3,0
		c1.3,0,4,0.8,4.8,1.5C31.1,6.2,35.7,14.8,37.1,21.6"/>
</g>
</svg>
