<?xml version="1.0" encoding="utf-8"?>
<!-- Generator: Adobe Illustrator 23.0.1, SVG Export Plug-In . SVG Version: 6.00 Build 0)  -->
<svg version="1.1" id="Layer_1" xmlns="http://www.w3.org/2000/svg" xmlns:xlink="http://www.w3.org/1999/xlink" x="0px" y="0px"
	 viewBox="0 0 56.2 100.3" style="enable-background:new 0 0 56.2 100.3;" xml:space="preserve">
<style type="text/css">
	.st0{fill:#D8D8D8;fill-opacity:0;stroke:#FFFFFF;stroke-width:4;}
</style>
<title>3</title>
<desc>Created with Sketch.</desc>
<path class="st0" d="M5.9,29.7v-1c0-5.6,0.3-10.8,2.5-15.8C11.9,5.1,19.6,2,27.9,2c15,0,23.5,9.5,23.5,24.2
	c0,9.5-2.2,18.1-11.6,22.3c10.6,3.4,14.4,11.8,14.4,22.4c0,16.9-10.5,27.4-27.4,27.4C10.4,98.3,2,88.2,2,72.3h17.4
	c0,0.8-0.1,1.8-0.1,2.7c0,4.5,2.1,8.8,7.1,8.8c7.3,0,7.8-9.2,7.8-14.6c0-10.9-3.2-13.4-14-13.4V40.1c9.7,0,14.3-1.7,14.3-12.3
	c0-4.2-1-10.5-6.4-10.5c-6,0-6.2,8.1-6.2,12.5H5.9z"/>
</svg>
