<?xml version="1.0" encoding="utf-8"?>
<!-- Generator: Adobe Illustrator 23.0.1, SVG Export Plug-In . SVG Version: 6.00 Build 0)  -->
<svg version="1.1" id="Layer_1" xmlns="http://www.w3.org/2000/svg" xmlns:xlink="http://www.w3.org/1999/xlink" x="0px" y="0px"
	 viewBox="0 0 53 98.9" style="enable-background:new 0 0 53 98.9;" xml:space="preserve">
<style type="text/css">
	.st0{fill:#D8D8D8;fill-opacity:0;stroke:#FFFFFF;stroke-width:4;}
</style>
<title>5</title>
<desc>Created with Sketch.</desc>
<path class="st0" d="M25.5,18L23,33.2c4.5,0.4,9,1,13.2,2.9C47.2,41.2,51,52.7,51,64c0,19.9-10.1,32.9-30.8,32.9
	c-6.4,0-12.2-1.7-17.9-4.3l3.1-16.1c3.4,2.7,7.1,4.5,11.5,4.5c9.8,0,14.4-8.3,14.4-17.1c0-11.6-7.8-16.5-18.6-16.5
	c-2.4,0-4.9,0.3-7.3,0.7L12.6,2h35.7v16H25.5z"/>
</svg>
