<?xml version="1.0" encoding="utf-8"?>
<!-- Generator: Adobe Illustrator 23.0.1, SVG Export Plug-In . SVG Version: 6.00 Build 0)  -->
<svg version="1.1" id="Layer_1" xmlns="http://www.w3.org/2000/svg" xmlns:xlink="http://www.w3.org/1999/xlink" x="0px" y="0px"
	 viewBox="0 0 55.7 98.9" style="enable-background:new 0 0 55.7 98.9;" xml:space="preserve">
<style type="text/css">
	.st0{fill:#D8D8D8;fill-opacity:0;stroke:#FFFFFF;stroke-width:4;}
</style>
<title>6</title>
<desc>Created with Sketch.</desc>
<path class="st0" d="M40.6,2L23,38.8c3.2-3.1,7-5.2,11.6-5.2c14.6,0,19,17.4,19,29c0,16.2-6.6,34.3-25.6,34.3C9,96.9,2,80.7,2,64
	C2,41.6,13.5,21.6,23,2H40.6z M35.6,64.6c0-4.5-1.1-14.6-7.3-14.6c-6.7,0-8.1,10.9-8.1,16c0,4.3,1.5,15,7.4,15
	C34.8,81,35.6,69.8,35.6,64.6z"/>
</svg>
