<?xml version="1.0" encoding="utf-8"?>
<!-- Generator: Adobe Illustrator 22.1.0, SVG Export Plug-In . SVG Version: 6.00 Build 0)  -->
<svg version="1.1" id="Layer_1" xmlns="http://www.w3.org/2000/svg" xmlns:xlink="http://www.w3.org/1999/xlink" x="0px" y="0px"
	 viewBox="0 0 20.39 20.39" style="enable-background:new 0 0 20.39 20.39;" xml:space="preserve">
<style type="text/css">
	.st0{fill:#FFFFFF;}
</style>
<path class="st0" d="M11.61,10.19l8.49-8.48c0.3921-0.3921,0.3921-1.0279,0-1.42c-0.3921-0.3921-1.0279-0.3921-1.42,0c0,0,0,0,0,0
	l-8.49,8.49L1.71,0.29c-0.3921-0.3921-1.0279-0.3921-1.42,0s-0.3921,1.0279,0,1.42l8.49,8.49l-8.49,8.48
	c-0.3921,0.3921-0.3921,1.0279,0,1.42s1.0279,0.3921,1.42,0l8.49-8.49l8.49,8.49c0.4195,0.3592,1.0508,0.3104,1.41-0.1091
	c0.3206-0.3744,0.3206-0.9265,0-1.3009C20.1,18.69,11.61,10.19,11.61,10.19z"/>
</svg>
