<svg id="Layer_1" data-name="Layer 1" xmlns="http://www.w3.org/2000/svg" viewBox="0 0 375 374.3">
  <defs>
    <style>
      .cls-1{fill:#fff}
    </style>
  </defs>
  <path class="cls-1" d="M68.94 75.56l-.12-.13c-2.19-2.29-3.23-5.71-3.44-11.21-.19-4.41-.4-5.86-2.27-7.77-1.44-1.47-3.11-2.4-4.78-.76s-1 3.35.87 5.41l-2.06 2c-2.45-2.55-3.66-6.1-.5-9.2s6.21-2.1 8.71.44c2.22 2.28 2.58 4.15 2.65 8.66.09 4 .7 6.78 1.53 8.29l6.79-6.66 1.51 2.15zM81.55 47.93c5.58 6.79 6.6 10.76 3 13.71S77 62.54 71.7 56c-5.81-7-5.7-10.75-2.56-13.31 3.34-2.74 6.86-1.47 12.41 5.24zM73.94 54c4.23 5.15 6.88 7.41 9 5.65s.54-4.68-3.74-9.89-6.51-6.73-8.51-5.09-1.12 4.06 3.25 9.33zM93.1 54.64L81.41 38.06a11 11 0 0 1-2.17 2.55l-1.35-1.91a9.46 9.46 0 0 0 2.23-4.09l1.65-1.16 13.75 19.5zM94.69 45.26c-1.94-3.21-1.24-5.48-.53-6.67-1.63 0-3.33-.85-4.69-3.1-1.75-2.9-1.62-6.3 1.8-8.37 3.18-1.92 6.14-.72 7.91 2.21 1.64 2.72 1.37 4.64.59 5.79 1.81-.21 3.9.6 5.74 3.65 2.11 3.49 1.84 7.1-1.89 9.35-3.55 2.14-6.81.65-8.93-2.86zM91.88 33.9c1.27 2.1 2.72 3 4.53 1.93 1.64-1 1.85-2.51.44-4.85-1.1-1.82-2.65-2.86-4.47-1.76s-1.51 3.02-.5 4.68zM103 40.26c-1.64-2.72-3.32-3.47-5.32-2.26s-1.89 3.29-.45 5.66 3.27 3.54 5.31 2.31 1.91-3.24.46-5.71zM108.1 17.51l2.75-1.17 4 9.38 7-3-4-9.38 2.75-1.17 9.57 22.51-2.75 1.17-4.54-10.67-7 3 4.54 10.67-2.74 1.15zM143.55 17.42c2.46 8.07 1.77 12.84-3.37 14.4-4.86 1.48-8.19-1.91-10.68-10.08S128.32 9.1 133 7.68c4.87-1.49 8.13 1.77 10.55 9.74zm-11.11 3.35c2 6.45 4.27 9.44 7.06 8.59s3.08-4.48 1.08-11-4.09-9-6.92-8.1-3.09 4.37-1.22 10.51zM145.47 4.68l2.93-.6 4.37 21.38 8.5-1.74.14 2.65-11 2.26zM163.55 1.48l3.32 24.24-3 .41-3.29-24.25zM169.65.69l5.61-.34c5.74-.35 8.48 3.45 8.95 11.11.51 8.27-1.52 12.94-7.85 13.33l-5.21.32zM174 22.4l2.09-.13c4.28-.26 5.44-3.73 5-10.56-.39-6.33-2.1-9-6.17-8.75l-2.12.13zM191.09 16.94l-2 7.39-3-.11L192.92 0l3.89.15 5.09 24.66-3.2-.12-1.41-7.52zm5.72-2.45a284.44 284.44 0 0 1-2.12-11.58h-.07c-.4 2.11-1.54 6.36-2.84 11.39zM205.7 25.36l1.08-9.12a1.25 1.25 0 0 0-.07-.66L202.28.33l3.36.4c1.09 4.26 2.66 10 3.14 12.38 1.12-2.37 4-7.61 6-11.3l3.15.37L210 16a1.59 1.59 0 0 0-.19.67l-1.07 9.09zM235.77 31.41l-2.26-.59a15 15 0 0 1 .46-2.49 4.84 4.84 0 0 1-5.47 1.55c-5.09-1.33-5.19-6.79-3.36-13.83 2.14-8.23 5.77-11.56 10.65-10.29 5.82 1.52 4.83 6.73 4.53 8.18l-2.89-.75c.16-.89.8-4.07-2.41-4.91s-5.33 2.74-6.84 8.53-1.69 9.91 1.55 10.75c3 .78 4.38-1.54 5.6-6.21l.31-1.19-3.94-1 .66-2.55 6.8 1.77zM250.11 10.53l-7.95 23.15-2.83-1 7.95-23.14zM255.77 12.56L266.38 17l-1 2.46-7.85-3.28-3 7.22 7.38 3.09-1 2.43-7.38-3.09-4.38 10.47-2.76-1.15zM273.11 23.41l-4.77-2.54 1.25-2.36L281.81 25l-1.25 2.36-4.81-2.55-10.23 19.26-2.64-1.4zM282.51 46.71c-1.24 2.12-1.45 4.36.66 5.86s3.82 1 5.34-1.12 1.35-3.72-.4-6.91c-2.11-3.75-2.5-6.14-.46-9s5.39-3.74 8.71-1.38c4 2.81 3 6.38 1.4 8.81l-2.41-1.71c.59-1.08 1.84-3.47-.51-5.13-1.82-1.29-3.46-.6-4.55.93-1.29 1.82-1.12 3.27.53 6.16 2.31 4.15 2.5 6.76.33 9.81s-5.72 4.21-9.48 1.54c-4.11-2.91-3.54-6.53-1.61-9.57zM305.74 41.48l2.26 2-6.69 7.7 5.71 5 6.69-7.7 2.26 2-16.05 18.35-2.26-2 7.61-8.76-5.71-5-7.61 8.76-2.26-2zM321.35 73.33c-6.17 5.74-10.75 7.21-14.41 3.28-3.46-3.72-1.88-8.2 4.37-14s10.84-6.6 14.15-3c3.48 3.69 1.98 8.05-4.11 13.72zm-7.88-8.51c-4.93 4.59-6.6 8-4.62 10.11s5.38.8 10.38-3.86 6.26-7.6 4.25-9.76-5.32-.87-10.01 3.5zM333.77 69.53l3.92 5.16c2.36 3.1 2.07 6.71-1.52 9.43s-7.13 2.34-9.86-1.24l-1.9-2.5-8.32 6.32-1.81-2.38zm-7.34 9.33l1.7 2.24c1.7 2.24 3.75 2.49 6.24.59 2.12-1.61 2.64-3.73 1.07-5.79l-1.87-2.47zM345.06 143.46h.17c3.09-.7 6.56.18 11.38 2.85 3.87 2.12 5.23 2.68 7.83 2.06 2-.47 3.66-1.43 3.12-3.7s-2.36-2.59-5.08-2.05l-.67-2.8c3.44-.78 7.12 0 8.14 4.32s-1.4 6.41-4.87 7.23c-3.09.73-4.87.08-8.81-2.16-3.47-2-6.17-2.9-7.89-3l2.2 9.25-2.62.18zM362.2 168.5c-8.7 1.26-12.63.08-13.29-4.52s3.11-6.9 11.46-8.11c9.06-1.31 12.16.71 12.74 4.71.62 4.28-2.31 6.67-10.91 7.92zm-1.3-9.68c-6.6 1-9.9 2.06-9.5 4.8s3.73 2.88 10.4 1.91 9.13-2.09 8.76-4.66-2.84-3.04-9.66-2.06zM350.49 175l20.23-1.44a11 11 0 0 1-1.06-3.17l2.33-.17a9.45 9.45 0 0 0 2.34 4l.14 2-23.79 1.69zM357.6 180.91c3.75-.06 5.36 1.68 6 2.89.81-1.42 2.41-2.45 5-2.5 3.39-.05 6.26 1.77 6.33 5.77.06 3.71-2.47 5.66-5.89 5.72-3.17 0-4.7-1.15-5.3-2.4-.73 1.67-2.47 3.07-6 3.12-4.07.07-7.06-2-7.13-6.34-.04-4.17 2.88-6.17 6.99-6.26zm.16 9.66c3.17-.05 4.67-1.12 4.63-3.46s-1.89-3.28-4.66-3.24-4.7 1-4.67 3.43 1.82 3.31 4.7 3.26zm11.07-6.38c-2.45 0-4 .82-4 2.95 0 1.91 1.24 2.86 4 2.82 2.13 0 3.81-.85 3.77-3s-1.83-2.81-3.77-2.77zM374.59 206.87l-.41 3-10.1-1.4-1 7.5 10.1 1.4-.41 3-24.24-3.36.41-3 11.5 1.59 1-7.5-11.5-1.59.41-3zM356.4 237.36c-8.18-2-11.91-5.09-10.61-10.3 1.23-4.93 5.86-6 14.14-4s11.44 5.5 10.26 10.21c-1.19 4.99-5.71 6.1-13.79 4.09zm2.85-11.25c-6.54-1.63-10.29-1.19-11 1.64s2.26 4.94 8.9 6.6 9.79 1.11 10.5-1.76-2.18-4.93-8.4-6.48zM366.37 245.54l-1 2.82-20.6-7.25-2.88 8.19-2.35-1.25 3.74-10.64zM359.8 262.66L337.32 253l1.18-2.75 22.5 9.66zM357.32 268.35l-2.59 5c-2.66 5.11-7.32 5.49-14.13 1.95-7.35-3.82-10.31-8-7.39-13.59l2.41-4.63zm-20.85-7.44l-1 1.85c-2 3.8.39 6.58 6.46 9.74 5.62 2.92 8.8 2.83 10.68-.78l1-1.88zM332.35 278.35l-5.35-5.5 1.64-2.5 17.24 18.33-2.13 3.26-23.75-8.4 1.76-2.68 7.17 2.67zm-.85 6.17c5.52 2 9.13 3.36 11 4.16v-.06c-1.6-1.44-4.65-4.6-8.29-8.32zM317.59 286.51l7.25 5.64a1.24 1.24 0 0 0 .6.28l15.35 4.09-2.08 2.67c-4.21-1.27-10-2.91-12.22-3.71 1.45 2.18 4.44 7.38 6.58 11l-1.95 2.5-7.69-13.98a1.58 1.58 0 0 0-.47-.51l-7.22-5.62zM296.9 309.13l1.67-1.64a15.2 15.2 0 0 1 1.89 1.68 4.84 4.84 0 0 1 1.49-5.49c3.76-3.68 8.5-.95 13.59 4.26 5.95 6.08 6.94 10.91 3.33 14.44-4.3 4.21-8.26.67-9.35-.34l2.14-2.09c.68.59 3.08 2.79 5.45.47s.4-6-3.78-10.26-7.62-6.56-10-4.22c-2.22 2.16-.94 4.55 2.43 8l.86.88 2.88-2.82 1.84 1.88-5 4.91zM307.42 332.16l-15.74-18.71 2.29-1.92 15.74 18.71zM302.76 336l-9.25 6.81-1.58-2.15 6.85-5-4.63-6.29-6.45 4.63-1.56-2.12 6.44-4.74-6.72-9.14 2.41-1.77zM284.52 345.3l4.63-2.79 1.38 2.28-11.85 7.15-1.38-2.28 4.66-2.81-11.27-18.66 2.56-1.55zM259.79 341.36c-1.19-2.15-3-3.49-5.37-2.44s-2.84 2.75-1.78 5.16 2.49 3.08 6.14 3.21c4.3.11 6.55 1 8 4.25s.44 6.54-3.29 8.18c-4.45 2-7-.68-8.27-3.33l2.7-1.19c.63 1.06 2 3.36 4.67 2.2 2-.9 2.29-2.66 1.54-4.38-.9-2-2.22-2.64-5.56-2.71-4.75-.15-7.08-1.33-8.59-4.76s-.67-7.07 3.55-8.93c4.62-2 7.42.31 9 3.54zM252.27 364l-2.84.92-3.15-9.7-7.2 2.33 3.15 9.7-2.85.92-7.55-23.28 2.85-.92 3.58 11 7.2-2.34-3.58-11 2.85-.92zM216.9 361c-1.73-8.25-.62-12.94 4.63-14 5-1 8 2.63 9.74 11s.05 12.69-4.71 13.69c-5 .95-7.95-2.59-9.66-10.69zm11.36-2.35c-1.38-6.59-3.42-9.77-6.27-9.17s-3.46 4.19-2.06 10.88 3.28 9.29 6.17 8.68 3.47-4.16 2.16-10.43zM213.76 373.56l-6.45.69c-3.87.41-6.82-1.7-7.3-6.18s1.68-7.32 6.16-7.8l3.12-.33-1.12-10.39 3-.32zm-4.2-11.11l-2.8.3c-2.79.3-4.07 1.92-3.73 5 .28 2.65 1.83 4.19 4.41 3.91l3.08-.33zM151 346.76v.17c-.87 3.05-3.3 5.68-7.94 8.63-3.71 2.39-4.86 3.31-5.56 5.88-.54 2-.5 3.9 1.76 4.51s3.4-.83 4.23-3.48l2.78.76c-1 3.4-3.41 6.24-7.69 5.08s-5-4.29-4-7.74c.83-3.06 2.25-4.32 6.11-6.7 3.41-2.1 5.5-4 6.39-5.51l-9.18-2.49 1.1-2.39zM120.83 349.83c3.05-8.25 6-11.13 10.32-9.51s4.57 6 1.64 13.94c-3.18 8.58-6.44 10.33-10.23 8.93-4.04-1.5-4.74-5.19-1.73-13.36zm9.12 3.49c2.31-6.25 2.93-9.68.33-10.64s-4.32 1.9-6.66 8.22-2.53 9-.1 9.92 4.04-1.05 6.48-7.5zM120.77 336.44l-8.45 18.44a11 11 0 0 1 3.29.6l-1 2.13a9.44 9.44 0 0 0-4.66.13l-1.83-.84 9.93-21.69zM111.85 339.78c-1.8 3.29-4.11 3.83-5.49 3.81.83 1.4.94 3.31-.32 5.62-1.63 3-4.64 4.57-8.14 2.65-3.25-1.78-3.7-4.94-2.06-7.94 1.52-2.78 3.32-3.52 4.71-3.42-1.09-1.46-1.44-3.67.27-6.79 2-3.57 5.21-5.16 9-3.06 3.65 1.97 4 5.53 2.03 9.13zm-8.39 8.13c1.18-2.15 1.26-3.87-.61-4.89-1.67-.92-3.1-.34-4.41 2.06-1 1.86-1.14 3.73.72 4.75s3.36-.21 4.29-1.91zm-.07-12.77c-1.52 2.78-1.33 4.61.72 5.73s3.79 0 5.12-2.45 1.41-4.61-.67-5.75-3.79-.05-5.18 2.48zM81.19 342.2l-2.4-1.79 6.1-8.17-6.06-4.52-6.1 8.17-2.4-1.79L85 314.49l2.4 1.79-6.94 9.3 6.06 4.52 6.94-9.3 2.4 1.79zM63.22 311.62c5.72-6.19 10.19-8 14.13-4.35 3.73 3.45 2.48 8-3.31 14.3s-10.31 7.43-13.88 4.09c-3.76-3.47-2.58-7.93 3.06-14.04zm8.49 7.9c4.57-4.95 6-8.44 3.85-10.43s-5.42-.4-10.07 4.63-5.67 8-3.5 10.05 5.38.46 9.73-4.25zM51.24 316.43l-2-2.22 16.25-14.6-5.81-6.46 2.22-1.46 7.54 8.39zM39.37 302.46l19.21-15.13 1.85 2.35-19.21 15.12zM35.61 297.62L32.47 293c-3.22-4.78-1.32-9.06 5-13.34 6.87-4.63 11.93-5.25 15.47 0L55.9 284zm16.51-14.76L51 281.12c-2.39-3.56-6-2.8-11.64 1-5.26 3.54-6.7 6.37-4.43 9.75l1.19 1.76zM38.75 270.86l7.37-2 1.41 2.64-24.33 6.34-1.84-3.43 18.72-16.85 1.52 2.83-5.77 5zm-5-3.7a300.66 300.66 0 0 1-8.92 7.68v.06c2-.72 6.27-1.89 11.27-3.3zM38.65 254l-8.43 3.66a1.23 1.23 0 0 0-.54.39l-10.94 11.51-1.35-3.11c3.14-3.09 7.34-7.35 9.12-8.95-2.61.23-8.61.36-12.78.52l-1.26-2.91 15.91-.11a1.6 1.6 0 0 0 .67-.17l8.39-3.65zM28.73 225l.63 2.26a15 15 0 0 1-2.38.85 4.84 4.84 0 0 1 4.09 3.89c1.42 5.07-3.25 7.91-10.26 9.87-8.19 2.29-12.9.84-14.26-4-1.62-5.8 3.38-7.57 4.79-8l.81 2.88c-.85.31-3.92 1.36-3 4.55s5.05 3.23 10.82 1.62 9.41-3.53 8.51-6.76c-.83-3-3.54-3-8.19-1.71l-1.18.33 1.1 3.92-2.53.71-1.89-6.77zM3.49 223.15l24-4.81.59 2.93-24 4.81zM2.39 217.2l-1.5-11.39 2.64-.35 1.11 8.43 7.75-1-1-7.93 2.61-.34 1 7.92L26.24 211l.39 3zM3 196.73l.22 5.4-2.66.11L0 188.41l2.66-.11.22 5.44 21.78-.88.12 3zM18.34 177c2.46 0 4.5-1 4.71-3.54s-1-3.81-3.67-4-3.9.71-5.75 3.85c-2.16 3.72-4 5.26-7.55 5s-5.95-2.75-5.6-6.81c.41-4.85 4-5.84 6.88-5.67l-.25 2.95c-1.23 0-3.92.17-4.16 3-.19 2.22 1.24 3.29 3.1 3.45 2.22.19 3.38-.69 5-3.58 2.41-4.1 4.56-5.58 8.3-5.26s6.52 2.8 6.13 7.4c-.43 5-3.84 6.36-7.44 6.23zM2.08 159.54l.55-2.94 10 1.88L14 151l-10-1.83.55-2.94 24 4.5-.55 2.94-11.4-2.14-1.33 7.47 11.4 2.14-.55 2.86zM21.67 129.94c8.08 2.43 11.66 5.65 10.11 10.79-1.47 4.86-6.13 5.75-14.31 3.3s-11.17-6-9.76-10.69c1.47-4.9 5.99-5.8 13.96-3.4zM18.3 141c6.45 1.94 10.22 1.68 11.06-1.11s-2-5-8.57-7-9.73-1.57-10.58 1.26 1.95 5.04 8.09 6.85zM12.15 121.1l2.48-6c1.49-3.6 4.76-5.17 8.92-3.44s5.62 5 3.89 9.14l-1.2 2.9 9.65 4-1.15 2.76zm11.76 1.64l1.08-2.6c1.08-2.6.26-4.49-2.63-5.69-2.46-1-4.55-.41-5.55 2l-1.19 2.86z"/>
  <path class="cls-1" transform="rotate(158.69 347.39 109.85)" d="M345.13 103.08h4.51v13.52h-4.51z"/>
  <path class="cls-1" transform="rotate(-111.31 347.37 109.85)" d="M345.13 103.08h4.51v13.52h-4.51z"/>
  <path class="cls-1" transform="rotate(21.31 43 92.95)" d="M40.74 86.21h4.51v13.52h-4.51z"/>
  <path class="cls-1" transform="rotate(-68.69 43 92.97)" d="M40.74 86.21h4.51v13.52h-4.51z"/>
  <path class="cls-1" transform="rotate(1 177.93 363.44)" d="M175.72 356.72h4.51v13.52h-4.51z"/>
  <path class="cls-1" transform="rotate(-89 177.98 363.48)" d="M175.72 356.72h4.51v13.52h-4.51z"/>
</svg>
