<svg id="Layer_1" xmlns="http://www.w3.org/2000/svg" viewBox="0 0 161.37 161.37">
  <path d="M161.37 80.68l-19.2 12.25 13.07 18.64-22.43 3.93 4.93 22.24-22.24-4.93-3.93 22.43-18.64-13.07-12.25 19.2-12.24-19.2-18.64 13.07-3.94-22.43-22.23 4.93 4.92-22.24-22.42-3.93 13.06-18.64L0 80.68l19.19-12.24L6.13 49.8l22.42-3.94-4.92-22.23 22.23 4.92L49.8 6.13l18.64 13.06L80.68 0l12.25 19.19 18.64-13.06 3.93 22.42 22.24-4.92-4.93 22.23 22.43 3.94-13.07 18.64 19.2 12.24z"/>
  <path d="M152.86 80.68L135.7 91.64l11.69 16.67-20.07 3.52 4.41 19.9-19.9-4.42-3.5 20.07-16.68-11.7-10.96 17.18-10.95-17.17-16.67 11.69-3.53-20.07-19.88 4.41 4.4-19.9-20.06-3.5 11.68-16.68L8.51 80.68l17.16-10.95L14 53.06l20.06-3.53-4.4-19.88 19.88 4.4 3.53-20.06 16.67 11.68L80.68 8.51l10.96 17.16L108.3 14l3.52 20.06 19.9-4.4-4.42 19.88 20.07 3.53-11.7 16.67 17.18 10.95z"/>
</svg>
