<?xml version="1.0" encoding="utf-8"?>
<!-- Generator: Adobe Illustrator 24.1.2, SVG Export Plug-In . SVG Version: 6.00 Build 0)  -->
<svg version="1.1" id="Layer_1" xmlns="http://www.w3.org/2000/svg" xmlns:xlink="http://www.w3.org/1999/xlink" x="0px" y="0px"
	 viewBox="0 0 71.3 106.8" style="enable-background:new 0 0 71.3 106.8;" xml:space="preserve">
<style type="text/css">
	.st0{fill:none;stroke:#FFFFFF;stroke-width:2;}
</style>
<g>
	<path class="st0" d="M70.3,85.3c0,4.8-2.8,9.9-3.1,20.4c-14.7-0.7-29.4-0.8-44.1-0.8c-7.3,0-20.4,0.1-22.1,0.1v-0.7
		c16.1-9.1,53.9-36,53.9-70.8C54.9,12.6,43,6,31.4,6C19.9,6,9.1,13.6,9.1,26.3c0,4.8,2.2,9.4,6.3,12.5c-2.8,1.1-3.8,1.8-5.6,3.1
		C6.6,38,5.2,32.6,5.2,28c0-15.3,12.2-27,30.1-27c15.8,0,31.2,10.5,31.2,32.9c0,23.2-25.9,45.1-46.8,61.3
		c13.6,0.1,33.7,0.8,37.4,0.8c8.5,0,9.8-2,12.5-10.8H70.3z"/>
</g>
</svg>
