<?xml version="1.0" encoding="utf-8"?>
<!-- Generator: Adobe Illustrator 24.1.2, SVG Export Plug-In . SVG Version: 6.00 Build 0)  -->
<svg version="1.1" id="Layer_1" xmlns="http://www.w3.org/2000/svg" xmlns:xlink="http://www.w3.org/1999/xlink" x="0px" y="0px"
	 viewBox="0 0 56.6 106.2" style="enable-background:new 0 0 56.6 106.2;" xml:space="preserve">
<style type="text/css">
	.st0{fill:none;stroke:#FFFFFF;stroke-width:2;}
</style>
<g>
	<path class="st0" d="M55.6,79.8c0,15.7-13.7,25.3-27.6,25.3c-18.2,0-27-11.1-27-22.8c0-10.6,7.3-20.6,22.5-28
		c-9.8-8-19.3-16.2-19.3-29C4.2,10.5,14.9,1,29.4,1C46.5,1,55,11.8,55,23.1c0,9.9-6.7,20.4-19.2,27C45.9,58.3,55.6,66.9,55.6,79.8z
		 M9.5,81.6c0,11.5,6.7,20.3,19.9,20.3c11.1,0,16.1-8.4,16.1-17.2c0-12.3-9.7-20.4-19.7-28.6C15.4,60.9,9.5,69.7,9.5,81.6z
		 M47.9,23.8c0-11.3-6.2-19.6-19.5-19.6c-9.8,0-15.7,6-15.7,15.7c0,12,10.5,20,21,28.6C43.6,43,47.9,33.1,47.9,23.8z"/>
</g>
</svg>
