<?xml version="1.0" encoding="utf-8"?>
<!-- Generator: Adobe Illustrator 24.1.2, SVG Export Plug-In . SVG Version: 6.00 Build 0)  -->
<svg version="1.1" id="Layer_1" xmlns="http://www.w3.org/2000/svg" xmlns:xlink="http://www.w3.org/1999/xlink" x="0px" y="0px"
	 viewBox="0 0 68.4 106" style="enable-background:new 0 0 68.4 106;" xml:space="preserve">
<style type="text/css">
	.st0{fill:none;stroke:#FFFFFF;stroke-width:2;}
</style>
<g>
	<path class="st0" d="M11.9,103.8c33.6-1.7,43.7-32.5,43.7-61.5c0-14.1-4.6-38.9-23.1-38.9C17,3.4,12.6,23.5,12.6,35.3
		c0,20,8.7,29.8,21,29.8c6.9,0,14.3-3.8,18.1-14.1h0.7C49,63.7,39.5,69.7,29.7,69.7C15.1,69.7,1,57.8,1,36.3C1,18.1,14.6,1,32.9,1
		c22.5,0,34.4,21,34.4,44.2c0,28.3-17.8,59.8-55.4,59.8V103.8z"/>
</g>
</svg>
