<?xml version="1.0" encoding="utf-8"?>
<!-- Generator: Adobe Illustrator 24.1.2, SVG Export Plug-In . SVG Version: 6.00 Build 0)  -->
<svg version="1.1" id="Layer_1" xmlns="http://www.w3.org/2000/svg" xmlns:xlink="http://www.w3.org/1999/xlink" x="0px" y="0px"
	 viewBox="0 0 62 105.9" style="enable-background:new 0 0 62 105.9;" xml:space="preserve">
<style type="text/css">
	.st0{fill:none;stroke:#FFFFFF;stroke-width:2;}
</style>
<g>
	<path class="st0" d="M9.2,78.3c-0.7,2-1,3.8-1,5.6c0,11.6,8.5,17.8,19.7,17.8c14.4,0,21.4-10.9,21.4-22.5c0-15-8.5-24.8-25.3-25.6
		v-1c17.9-1,24.2-12,24.2-24.6C48.2,14.4,39.7,6,26.4,6C16.5,6,6.7,12.5,6.7,24.1c0,3.1,1,6.3,3.5,9.2c-2.7,0.6-3.4,0.8-5.5,2.1
		c-1.4-2.9-2-6.3-2-9.5C2.7,13,13.4,1,30.3,1c18.1,0,29.5,11.9,29.5,26c0,9-5.2,16.5-16.4,22C55.5,55,61,63.3,61,74.6
		c0,15.7-11.5,30.2-32.2,30.2c-11.5,0-23-6.7-27.6-19.9c4.8-3.2,5.9-6,7.7-7.3L9.2,78.3z"/>
</g>
</svg>
