<?xml version="1.0" encoding="utf-8"?>
<!-- Generator: Adobe Illustrator 24.1.2, SVG Export Plug-In . SVG Version: 6.00 Build 0)  -->
<svg version="1.1" id="Layer_1" xmlns="http://www.w3.org/2000/svg" xmlns:xlink="http://www.w3.org/1999/xlink" x="0px" y="0px"
	 viewBox="0 0 68.4 106" style="enable-background:new 0 0 68.4 106;" xml:space="preserve">
<style type="text/css">
	.st0{fill:none;stroke:#FFFFFF;stroke-width:2;}
</style>
<g>
	<path class="st0" d="M16,55c3.4-12.7,12.9-18.8,22.7-18.8c14.6,0,28.7,11.9,28.7,33.5c0,18.2-13.6,35.3-31.9,35.3
		C12.9,105,1,84,1,60.8C1,32.5,18.8,1,56.4,1v1.3C22.8,3.9,12.8,34.7,12.8,63.7c0,14.1,4.6,38.9,23.1,38.9
		c15.5,0,19.9-20.2,19.9-31.9c0-20-8.7-29.8-21-29.8c-6.9,0-14.3,3.8-18.1,14.1H16z"/>
</g>
</svg>
