<?xml version="1.0" encoding="utf-8"?>
<!-- Generator: Adobe Illustrator 24.1.2, SVG Export Plug-In . SVG Version: 6.00 Build 0)  -->
<svg version="1.1" id="Layer_1" xmlns="http://www.w3.org/2000/svg" xmlns:xlink="http://www.w3.org/1999/xlink" x="0px" y="0px"
	 viewBox="0 0 71.2 106.2" style="enable-background:new 0 0 71.2 106.2;" xml:space="preserve">
<style type="text/css">
	.st0{fill:none;stroke:#FFFFFF;stroke-width:2;}
</style>
<g>
	<path class="st0" d="M64.7,105.2c-2.9-0.1-7.4-0.3-12.2-0.3c-5.2,0-9.1,0.1-12.2,0.3v-0.7c5.2-0.8,7-1.5,7-12.7V74.8H1.5l-0.3-0.6
		L57,1h0.7v67.3h1c5.9,0,9.1,0,10.8-4.8h0.7c-0.1,3.5-3.1,7.1-4.1,11.9c-1.5-0.6-4.8-0.7-7.1-0.7h-1.3v16.9c0,11.2,1.8,11.9,7,12.7
		V105.2z M47.4,18.9L9.6,68.3h37.8V18.9z"/>
</g>
</svg>
