<?xml version="1.0" encoding="utf-8"?>
<!-- Generator: Adobe Illustrator 24.1.2, SVG Export Plug-In . SVG Version: 6.00 Build 0)  -->
<svg version="1.1" id="Layer_1" xmlns="http://www.w3.org/2000/svg" xmlns:xlink="http://www.w3.org/1999/xlink" x="0px" y="0px"
	 viewBox="0 0 63.7 107.3" style="enable-background:new 0 0 63.7 107.3;" xml:space="preserve">
<style type="text/css">
	.st0{fill:none;stroke:#FFFFFF;stroke-width:2;}
</style>
<g>
	<path class="st0" d="M7.8,82.5c-0.1,0.8-0.1,1.7-0.1,2.4c0,11.1,9,18.2,21.7,18.2c11.6,0,24.1-7.7,24.1-27
		c0-17.4-10.4-27.9-25.5-27.9c-6.3,0-13,1.7-18.6,7.8H8.6C10.3,43.6,11,16.3,11,2.1c2.1,0.1,21.6,1.3,33.3,1.3
		c6.6,0,7.8-0.1,9.5-2.4h0.7c-0.8,2.5-3.2,6.6-4.8,12.2l-35.3-1.3c-0.1,9.9-0.4,19.7-1,29.7c5.9-2.5,10.6-3.4,15.8-3.4
		c18.9,0,33.3,11.1,33.3,33.2c0,18.8-13.4,34.9-32.9,34.9c-12,0-23.7-6.2-28.6-18.6c3.6-2.7,4.5-4.6,6-5.6L7.8,82.5z"/>
</g>
</svg>
