<?xml version="1.0" encoding="utf-8"?>
<!-- Generator: Adobe Illustrator 23.0.1, SVG Export Plug-In . SVG Version: 6.00 Build 0)  -->
<svg version="1.1" id="Layer_1" xmlns="http://www.w3.org/2000/svg" xmlns:xlink="http://www.w3.org/1999/xlink" x="0px" y="0px"
	 viewBox="0 0 617.8 201.7" style="enable-background:new 0 0 617.8 201.7;" xml:space="preserve">
<style type="text/css">
	.st0{fill-rule:evenodd;clip-rule:evenodd;fill:#660E34;}
	.st1{fill-rule:evenodd;clip-rule:evenodd;fill:#FFFFFF;}
</style>
<title>Group 34</title>
<desc>Created with Sketch.</desc>
<polygon id="Fill-1" class="st0" points="4.9,89.6 4.9,97.4 35.2,93.1 35,195.7 42.8,194.6 43,92 73.3,87.8 73.3,80 "/>
<path id="Fill-2" class="st1" d="M0,85v18.4l30.3-4.3l-0.2,102.6l17.6-2.5l0.2-102.6l30.3-4.2V74L0,85z M4.9,89.6L73.3,80v7.8
	L43,92.1l-0.2,102.5l-7.8,1.1l0.2-102.6L4.9,97.4V89.6z"/>
<g id="Group-33" transform="translate(0.000000, 0.188000)">
	<g id="Group-5">
		<g id="Clip-4">
		</g>
		<path id="Fill-3" class="st0" d="M131.7,71.6L109,74.8l-0.2,110.4l7.8-1.1l0.1-55.2l5.2-0.7l39,49.7l9.9-1.4L130,127.1l7.3-1
			c17.6-2.5,26.5-12.6,26.5-30c0-10.2-3.3-18.3-9.1-22.4C148.9,69.4,142.2,70.1,131.7,71.6 M116.7,124l0.1-43.9l11.9-1.7
			c17.4-2.4,27.5-0.2,27.4,18.8c0,19.7-12.5,23-27.5,25.1L116.7,124"/>
	</g>
	<g id="Group-8">
		<g id="Clip-7">
		</g>
		<path id="Fill-6" class="st1" d="M131.7,66.3l-27.6,3.9l-0.3,120.9l17.6-2.5l0.1-52.1l36.9,46.9l22.5-3.2L140,130.7
			c18.5-3.6,28.6-16.1,28.6-35.5c0-11.8-4-21.4-10.9-26.2C150.3,63.7,141.3,64.9,131.7,66.3 M108.7,185.1l0.2-110.4l22.7-3.2
			c10.5-1.5,17.2-2.2,23.1,2c5.8,4.1,9.1,12.2,9.1,22.4c0,17.5-9,27.6-26.5,30l-7.3,1l40.8,49.4l-9.9,1.4l-39-49.7l-5.2,0.7
			l-0.1,55.2L108.7,185.1 M128.7,78.4L116.8,80l-0.1,43.9l11.9-1.7c15-2.1,27.5-5.5,27.5-25.1C156.1,78.2,146.1,75.9,128.7,78.4
			 M121.6,118l0.1-33.4l7-1c17.5-2.5,22.6,0.7,22.5,14.2c0,13.5-5.9,16.8-22.6,19.1L121.6,118"/>
	</g>
	<g id="Group-11">
		<g id="Clip-10">
		</g>
		<polygon id="Fill-9" class="st0" points="257.2,53.9 205.6,61.2 205.4,171.6 257,164.3 257,156.8 213.2,163 213.3,113.4 
			257.1,107.2 257.1,99.7 213.4,105.9 213.4,67.4 257.2,61.3 		"/>
	</g>
	<g id="Group-14">
		<g id="Clip-13">
		</g>
		<path id="Fill-12" class="st1" d="M262.1,48l-61.4,8.6l-0.2,120.9l61.4-8.6v-18.1l-43.8,6.1l0.1-39l43.8-6.2V93.6l-43.8,6.1
			l0.1-27.9l43.8-6.2L262.1,48L262.1,48z M205.4,171.6l0.2-110.4l51.6-7.3v7.3l-43.8,6.2l-0.1,38.4l43.8-6.2v7.5l-43.8,6.2
			l-0.1,49.6l43.8-6.2v7.5L205.4,171.6z"/>
	</g>
	<g id="Group-17">
		<g id="Clip-16">
		</g>
		<polygon id="Fill-15" class="st0" points="300.2,47.6 300,158.3 307.8,157.2 308,66.2 385.6,146.6 385.8,35.9 377.9,37 377.8,129 
					"/>
	</g>
	<g id="Group-20">
		<g id="Clip-19">
		</g>
		<path id="Fill-18" class="st1" d="M295.3,34.6l-0.2,129.7l17.6-2.5l0.2-82.7l77.6,80.5L390.7,30l-17.6,2.4l-0.2,83.6L295.3,34.6
			L295.3,34.6z M300,158.3l0.2-110.7l77.6,81.4l0.2-92l7.8-1.1l-0.2,110.8L308,66.2l-0.2,91L300,158.3z"/>
	</g>
	<g id="Group-23">
		<g id="Clip-22">
		</g>
		<path id="Fill-21" class="st0" d="M450.9,26.7l-18.1,2.6l-0.2,110.4l22.7-3.2c18.2-2.6,30.9-5.1,42.4-16.2
			c11.8-11.5,17.8-27.4,17.9-47.3c0-20-5.9-34.3-17.7-42.5C485.4,21.9,470.1,24,450.9,26.7 M440.4,130.9l0.2-95.2l10.7-1.5
			c17.8-2.5,31.9-4.5,41.6,3.2c9.5,7.2,14.3,19.5,14.3,36.5c0,17.1-5,31.2-14.5,40.8c-9.8,10.2-23.8,12.2-41.6,14.7L440.4,130.9"/>
	</g>
	<g id="Group-26">
		<g id="Clip-25">
		</g>
		<path id="Fill-24" class="st1" d="M450.9,21.4l-23,3.2l-0.2,120.9l27.6-3.9c18.6-2.6,32.7-5.4,45.4-17.8
			c13.1-12.7,19.7-30.1,19.8-51.8c0-21.8-6.6-37.4-19.6-46.4C487,16.3,470.3,18.7,450.9,21.4 M432.6,139.6l0.2-110.3l18.1-2.5
			c19.3-2.7,34.5-4.8,47,3.7c11.8,8.2,17.7,22.5,17.7,42.5c0,19.9-6,35.8-17.9,47.3c-11.5,11.2-24.3,13.7-42.4,16.2L432.6,139.6
			 M451.3,34.1l-10.7,1.5l-0.2,95.2l10.7-1.5c17.7-2.5,31.7-4.5,41.6-14.7c9.4-9.6,14.4-23.7,14.5-40.8c0-17-4.8-29.3-14.3-36.5
			C483.2,29.7,469.1,31.6,451.3,34.1 M445.4,124.9l0.2-84.7l5.8-0.8c18.7-2.6,30.5-3.9,38.4,2.4c8.5,6.4,12.6,17.2,12.5,32.8
			c0,15.5-4.4,28-12.7,36.5c-8.1,8.4-19.3,10.3-38.5,13L445.4,124.9"/>
	</g>
	<g id="Group-29">
		<g id="Clip-28">
		</g>
		<path id="Fill-27" class="st0" d="M582,5.5c-16.3,2.3-27.7,14.5-27.7,29.7c0,13,6.4,21.3,19.6,25.4l13,4.2
			c12,3.9,18.1,11.7,18.1,23c0,14.4-9.6,25.5-23.9,27.5c-8,1.1-18.1-1.1-22.8-17l-7.1,4.7c4.1,14.1,14.7,20.7,29.9,18.6
			c19.4-2.7,31.9-17.4,31.9-37.3c0-13.6-6.4-22.3-19.6-26.5l-15.3-5.1c-7.2-2.3-15.8-7.4-15.8-18.8c0-11.3,7.9-20.6,18.8-22.1
			c7.7-1.1,14,2.1,18.9,9.6l6.5-5.4C601.6,7.5,593.4,3.9,582,5.5"/>
	</g>
	<g id="Group-32">
		<g id="Clip-31">
		</g>
		<path id="Fill-30" class="st1" d="M582,0.2c-18.9,2.7-32.6,17.7-32.6,35.7c0,15.2,7.6,25.2,22.6,29.8l13,4.2
			c10.2,3.3,15.1,9.4,15.1,18.6c0,11.5-7.5,19.9-19,21.5c-9.8,1.4-16-4.1-18.9-16.7l-0.7-3.1L545.4,101l0.5,2
			c4.3,17.7,17.1,26.4,35.1,23.9c22-3.1,36.8-20.5,36.8-43.2c0-15.8-7.6-26.2-22.5-30.9L580,47.7c-8.5-2.7-12.9-7.5-12.9-14.4
			c0-8.3,5.7-15,13.9-16.1c6.5-0.9,11.9,2.3,16,9.7l1.3,2.3l14.5-12.1l-0.9-2C606.4,3.4,596-1.7,582,0.2 M581.1,115.3
			c14.3-2,23.9-13.1,23.9-27.5c0-11.4-6.1-19.1-18.1-23l-13-4.2c-13.2-4.1-19.6-12.4-19.6-25.4c0-15.2,11.4-27.4,27.7-29.7
			c11.3-1.6,19.6,1.9,24.5,10.5l-6.5,5.4c-4.9-7.4-11.2-10.6-18.9-9.6c-10.9,1.5-18.8,10.8-18.8,22.1c0,11.4,8.6,16.5,15.8,18.8
			l15.3,5.1C606.6,62,613,70.7,613,84.3c0,19.9-12.6,34.5-31.9,37.3c-15.2,2.1-25.7-4.5-29.9-18.6l7.1-4.7
			C562.9,114.3,573.1,116.4,581.1,115.3"/>
	</g>
</g>
</svg>
