<svg width="664" height="61" viewBox="0 0 664 61" fill="none" xmlns="http://www.w3.org/2000/svg">
<g clip-path="url(#clip0)">
<path class="title__wellness" d="M9.49454 17.9272L9.64892 18.9361C9.64892 18.9361 5.86654 19.2466 6.87003 23.4374L15.9786 57.5074L24.2381 25.2224L22.1539 17.9272L31.8028 17.8496L32.1116 18.8585C32.1116 18.8585 28.3292 19.7122 29.5643 23.7478L39.3676 57.6626L47.4727 24.8343L41.8377 17.9272H50.406L39.9851 60.1461H34.5045L25.01 27.5506L16.7505 60.1461H11.2699L0 17.9272H9.49454Z" fill="white"/>
<path class="title__wellness" d="M69.395 17.0742C80.3562 17.0742 83.8298 26.6976 83.8298 31.5869H56.9672C56.5812 33.76 56.4269 36.1658 56.5812 38.7269C57.276 48.2727 62.6022 55.1022 70.5529 55.7231C75.4159 56.1887 79.893 53.4724 82.9035 47.7294L83.4438 48.6607C80.279 56.8872 74.3352 60.69 67.6196 60.69C59.7461 60.6124 52.1041 52.5411 51.8726 39.3478C51.641 26.232 59.6689 17.0742 69.395 17.0742ZM78.9667 29.802C78.9667 29.802 78.1948 18.0831 69.8581 18.0831C63.6828 18.0831 59.0514 22.662 57.3532 29.802H78.9667Z" fill="white"/>
<path class="title__wellness" d="M87.3807 0.232422H96.1033V54.7909C96.1033 57.352 97.2612 58.8266 99.5769 59.0594V60.0683H90.8543V5.19934C90.8543 2.71588 89.6964 1.47415 87.3035 1.39654L87.3807 0.232422Z" fill="white"/>
<path class="title__wellness" d="M103.436 0.232422H112.159V54.7909C112.159 57.352 113.317 58.8266 115.633 59.0594V60.0683H106.91V5.19934C106.91 2.71588 105.752 1.47415 103.359 1.39654V0.232422H103.436Z" fill="white"/>
<path class="title__wellness" d="M122.04 59.0594C122.04 59.0594 125.59 58.9042 125.59 54.791V23.3597C125.59 20.5658 124.432 19.0912 122.194 18.936V17.9271H127.675L130.453 22.1956L130.531 32.4398C131.997 27.8609 135.239 17.5391 141.955 17.5391C146.432 17.5391 151.295 21.4195 151.295 31.5861V54.7134C151.295 57.5073 152.453 58.9818 154.691 59.137V60.1459H146.046V32.0518C146.046 23.8253 144.116 20.8762 140.72 20.8762C134.931 20.8762 131.766 31.7414 130.839 35.6994V55.4894L134.545 60.1459H122.117V59.0594H122.04Z" fill="white"/>
<path class="title__wellness" d="M175.147 17.0742C186.108 17.0742 189.582 26.6976 189.582 31.5869H162.719C162.333 33.76 162.179 36.1658 162.333 38.7269C163.028 48.2727 168.354 55.1022 176.305 55.7231C181.168 56.1887 185.645 53.4724 188.656 47.7294L189.196 48.6607C185.954 56.8872 180.087 60.69 173.295 60.69C165.421 60.6124 157.779 52.5411 157.548 39.4254C157.316 26.232 165.344 17.0742 175.147 17.0742ZM184.642 29.802C184.642 29.802 183.87 18.0831 175.533 18.0831C169.358 18.0831 164.726 22.662 163.028 29.802H184.642Z" fill="white"/>
<path class="title__wellness" d="M195.294 28.9482C195.294 21.0322 201.778 17.2294 206.873 17.2294C210.038 17.2294 212.585 17.7726 215.441 18.8591L218.297 16.9189V30.1123L212.662 19.6352C210.964 18.8591 209.189 18.4711 207.568 18.4711C202.627 18.4711 198.613 21.8083 198.613 26.3095C198.613 37.1747 219.61 34.6912 219.61 48.5055C219.61 55.2574 215.21 61.0004 208.417 61.0004C204.634 61.0004 200.929 59.293 198.15 58.0513L195.449 59.9915V46.5653L200.929 56.8095C203.785 58.5945 206.255 59.293 208.34 59.293C212.971 59.293 215.75 55.723 215.75 51.4546C215.827 40.9775 195.294 44.3922 195.294 28.9482Z" fill="white"/>
<path class="title__wellness" d="M226.865 28.9482C226.865 21.0322 233.349 17.2294 238.444 17.2294C241.609 17.2294 244.156 17.7726 247.012 18.8591L249.868 16.9189V30.1123L244.233 19.6352C242.535 18.8591 240.76 18.4711 239.139 18.4711C234.198 18.4711 230.184 21.8083 230.184 26.3095C230.184 37.1747 251.181 34.6912 251.181 48.5055C251.181 55.2574 246.781 61.0004 239.988 61.0004C236.205 61.0004 232.5 59.293 229.721 58.0513L227.02 59.9915V46.5653L232.5 56.8095C235.356 58.5945 237.826 59.293 239.911 59.293C244.542 59.293 247.321 55.723 247.321 51.4546C247.398 40.9775 226.865 44.3922 226.865 28.9482Z" fill="white"/>
<path class="title__trends" d="M267.082 16.5302V0.542969H313.937V16.6079L304.52 2.87121H295.488V53.8598C295.643 58.4386 300.197 58.9043 300.197 58.9043V60.146H280.822V58.9819C280.822 58.9819 285.376 58.5163 285.454 53.9374V2.87121H276.422L267.082 16.5302Z" fill="white"/>
<path class="title__trends" d="M315.558 17.9277H325.439L329.298 22.7394L329.684 28.6377C330.147 28.172 330.765 27.6288 331.151 27.2407C335.859 21.1097 342.652 16.9188 350.371 18.1606L348.133 30.8107L342.421 21.8081C342.421 21.8081 336.94 20.8768 331.846 29.569C331.305 30.2674 330.61 31.1211 330.147 32.13V60.2242H315.481V58.8272C315.481 58.8272 320.112 58.8272 320.112 53.4723V24.7573C320.112 21.2649 318.569 19.3247 315.481 19.0919L315.558 17.9277Z" fill="white"/>
<path class="title__trends" d="M376.385 17.1514C390.897 17.1514 396.069 26.7748 396.069 31.6641H362.259C361.873 33.4491 361.796 35.4669 361.873 37.7175C362.568 46.7977 369.978 53.7824 380.013 54.1704C385.416 54.4809 391.051 52.3855 394.525 47.6514L395.451 48.8155C391.051 56.9643 382.406 60.8447 373.606 60.8447C362.182 60.8447 352.07 52.4631 351.838 39.5801C351.607 26.3091 362.799 17.1514 376.385 17.1514ZM362.722 29.2582H386.497C386.497 29.2582 385.648 18.6259 376.539 18.5483C369.669 18.5483 364.652 22.7392 362.722 29.2582Z" fill="white"/>
<path class="title__trends" d="M399.774 58.9822C399.774 58.9822 404.405 58.827 404.405 53.5496V24.6794C404.405 21.187 402.862 19.2468 399.774 19.014V17.8499H409.577L413.437 22.5064L413.823 29.6463C415.598 25.9211 419.689 17.3066 428.335 17.3066C435.436 17.3066 441.689 22.2736 441.689 32.9835V53.3168V53.472C441.689 56.8868 443.233 58.7494 446.32 58.827V60.0687H431.654V33.2939C431.654 25.1451 429.647 21.7303 425.324 21.7303C419.226 21.7303 415.675 29.6463 414.286 33.2163V54.0153L419.612 60.2239H399.697L399.774 58.9822Z" fill="white"/>
<path class="title__trends" d="M477.274 22.506V6.98433C477.274 1.62937 472.642 1.31894 472.642 1.31894V0.232422H482.446L487.309 6.13064V53.4716C487.309 57.6624 490.705 58.9042 492.095 58.9042V60.1459H482.446L478.741 56.4207L478.277 52.3851C476.888 54.6357 472.257 60.6116 464.229 60.6116C442.538 60.6116 443.773 18.7808 467.393 18.7808C471.33 18.8584 474.881 20.1777 477.274 22.506ZM477.274 50.2121V26.7744C476.425 24.2909 472.797 21.8075 469.092 21.8075C455.429 21.8075 455.043 56.8864 467.471 56.8864C471.871 56.8864 475.576 53.0836 477.274 50.2121Z" fill="white"/>
<path class="title__trends" d="M497.884 29.4915C497.884 21.4979 506.838 17.2294 513.94 17.2294C518.186 17.2294 521.891 17.9279 525.828 19.1696L530.382 17.0742V32.5958L518.572 19.6353C517.028 19.1696 515.561 18.9368 514.017 18.9368C509 18.9368 504.832 21.6531 504.832 25.3783C504.832 35.8554 532.312 34.6137 532.312 48.5831C532.312 55.335 526.136 61.0004 516.333 61.0004C511.393 61.0004 506.298 59.4483 502.67 58.3617L498.193 60.0691L498.27 44.7027L509.772 57.4304C512.242 58.3617 514.558 58.8274 516.487 58.8274C521.736 58.8274 524.824 55.8007 524.824 52.1531C524.901 42.8401 497.884 45.0908 497.884 29.4915Z" fill="white"/>
<path class="title__year title__year--1" d="M616.913 3.95791C616.913 3.49226 616.913 2.94901 616.913 2.94901C622.625 0.155113 625.018 0.0775049 625.018 0.0775049C630.036 -0.465752 636.288 1.70728 636.288 6.6742C636.288 12.1068 630.576 17.9274 623.089 23.0495H634.281L636.751 21.963L635.208 27.706H617.299L616.759 26.6195C626.022 20.178 631.271 12.5724 631.271 6.82941C631.271 2.48336 628.26 1.31924 625.327 1.31924C624.478 1.31924 623.86 1.31924 623.011 1.62967C622.394 1.78488 616.913 3.95791 616.913 3.95791Z" fill="white"/>
<path class="title__year title__year--2" d="M631.657 36.243C631.657 35.7773 631.657 35.2341 631.657 35.2341C637.369 32.4402 639.762 32.3626 639.762 32.3626C644.779 31.8193 651.032 33.9924 651.032 39.0369C651.032 44.4695 645.32 50.2901 637.832 55.4122H649.025L651.495 54.3257L649.951 60.0687H632.043L631.502 58.9822C640.611 52.4631 645.937 44.9351 645.937 39.1145C645.937 34.7684 642.927 33.6043 639.994 33.6043C639.144 33.6043 638.527 33.6043 637.678 33.9147C637.137 33.9924 631.657 36.243 631.657 36.243Z" fill="white"/>
<path class="title__year title__year--3" d="M651.186 0.310547C657.362 0.310547 664 4.88943 664 14.4352C664 22.5841 658.442 28.0943 651.804 28.0943C645.628 28.0943 638.99 23.7482 638.99 14.1248C638.99 5.97594 644.471 0.310547 651.186 0.310547ZM654.351 26.5421C655.355 26.2317 661.144 23.8258 658.828 12.6502C656.435 1.31945 649.565 1.7851 648.639 2.01793C647.635 2.25075 641.769 4.96704 644.085 16.065C646.478 27.3958 653.348 26.6973 654.351 26.5421Z" fill="white"/>
<path class="title__year title__year--4" d="M661.839 32.4404L661.761 56.9646C661.839 59.3705 663.923 59.4481 663.923 59.4481V59.9913H654.969V59.4481C654.969 59.4481 657.13 59.3705 657.13 56.9646V38.8819C657.13 36.3208 653.965 36.0104 653.965 36.0104V35.5448L661.839 32.4404Z" fill="white"/>
<path class="title__line" d="M627.334 35.7002H534.936V36.5539H627.334V35.7002Z" fill="white"/>
</g>
<defs>
<clipPath id="clip0">
<rect width="664" height="61" fill="white"/>
</clipPath>
</defs>
</svg>
