<svg preserveAspectRatio="xMidYMid meet" viewBox="0 0 198 107" fill="none" xmlns="http://www.w3.org/2000/svg">
  <path class="title__wellness" d="M6.67833 11.3623L6.75977 12.0162C6.75977 12.0162 4.31633 12.1797 4.96792 14.8772L10.8322 36.784L16.1263 16.0216L14.8231 11.444L21.0946 11.3623L21.2575 12.0162C21.2575 12.0162 18.8141 12.5884 19.6285 15.1224L25.9 36.8657L31.1127 15.7764L27.529 11.3623H33.0675L26.3887 38.5006H22.805L16.6964 17.5747L11.4023 38.5006H7.73715L0.488281 11.3623H6.67833Z" fill="white"/>
  <path class="title__wellness" d="M45.2041 10.79C52.2086 10.79 54.4891 17.0024 54.4891 20.1086H37.2222C36.9778 21.4982 36.8149 23.0513 36.9778 24.6861C37.3851 30.8168 40.8059 35.1491 45.9371 35.6395C49.0321 35.9665 51.9642 34.1682 53.919 30.4898L54.2448 31.1437C52.1271 36.457 48.3805 38.9092 44.0638 38.9092C39.014 38.8275 34.1271 33.6777 33.8828 25.1766C33.8013 16.6754 38.9326 10.79 45.2041 10.79ZM51.3127 19.046C51.3127 19.046 50.824 11.5257 45.4484 11.5257C41.4575 11.5257 38.4439 14.4684 37.3851 19.046H51.3127Z" fill="white"/>
  <path class="title__wellness" d="M56.7695 0H62.3894V35.0672C62.3894 36.7021 63.1225 37.683 64.67 37.8465V38.5004H59.0501V3.18793C59.0501 1.63484 58.317 0.817418 56.7695 0.735676V0Z" fill="white"/>
  <path class="title__wellness" d="M67.1133 0H72.7332V35.0672C72.7332 36.7021 73.4662 37.683 75.0137 37.8465V38.5004H69.3938V3.18793C69.3938 1.63484 68.6608 0.817418 67.1133 0.735676V0Z" fill="white"/>
  <path class="title__wellness" d="M79.0859 37.8467C79.0859 37.8467 81.3665 37.6833 81.3665 35.0675V14.8773C81.3665 13.079 80.6334 12.0981 79.1674 12.0163V11.3624H82.7511L84.543 14.1416L84.6244 20.681C85.5203 17.7383 87.7194 11.1172 91.9547 11.1172C94.8054 11.1172 97.9819 13.6512 97.9819 20.1088V34.9858C97.9819 36.7841 98.7149 37.765 100.181 37.8467V38.5007H94.6425V20.4358C94.6425 15.1225 93.4208 13.2425 91.2217 13.2425C87.4751 13.2425 85.4389 20.2723 84.8687 22.7245V35.3945L87.2307 38.4189H79.2488L79.0859 37.8467Z" fill="white"/>
  <path class="title__wellness" d="M113.294 10.79C120.298 10.79 122.579 17.0024 122.579 20.1086H105.312C105.068 21.4982 104.986 23.0513 105.068 24.6861C105.475 30.8168 108.896 35.1491 114.027 35.6395C117.122 35.9665 120.054 34.1682 122.009 30.4898L122.334 31.1437C120.217 36.457 116.47 38.9092 112.154 38.9092C107.104 38.8275 102.217 33.6777 101.973 25.1766C101.81 16.6754 106.941 10.79 113.294 10.79ZM119.402 19.046C119.402 19.046 118.914 11.5257 113.538 11.5257C109.547 11.5257 106.534 14.4684 105.475 19.046H119.402Z" fill="white"/>
  <path class="title__wellness" d="M126.244 18.4738C126.244 13.4058 130.398 10.9535 133.737 10.9535C135.774 10.9535 137.403 11.3622 139.276 12.0162L141.068 10.79V19.2912L137.484 12.5066C136.344 12.0162 135.203 11.7709 134.145 11.7709C130.968 11.7709 128.362 13.8962 128.362 16.8389C128.362 23.8687 141.882 22.2339 141.882 31.062C141.882 35.3943 139.113 39.0727 134.633 39.0727C132.19 39.0727 129.828 38.0101 128.036 37.1926L126.326 38.4188V29.7541L129.909 36.2935C131.701 37.4379 133.33 37.9283 134.715 37.9283C137.728 37.9283 139.52 35.6395 139.52 32.8603C139.52 26.2392 126.244 28.3645 126.244 18.4738Z" fill="white"/>
  <path class="title__wellness" d="M146.606 18.4738C146.606 13.4058 150.76 10.9535 154.1 10.9535C156.136 10.9535 157.765 11.3622 159.638 12.0162L161.43 10.79V19.2912L157.846 12.5066C156.706 12.0162 155.566 11.7709 154.507 11.7709C151.33 11.7709 148.724 13.8962 148.724 16.8389C148.724 23.8687 162.244 22.2339 162.244 31.062C162.244 35.3943 159.475 39.0727 154.996 39.0727C152.552 39.0727 150.19 38.0101 148.398 37.1926L146.688 38.4188V29.7541L150.272 36.2935C152.063 37.4379 153.692 37.9283 155.077 37.9283C158.091 37.9283 159.882 35.6395 159.882 32.8603C159.801 26.2392 146.606 28.3645 146.606 18.4738Z" fill="white"/>
  <path class="title__trends"  d="M2.11719 56.2383V46.5928H30.3796V56.2383L24.6783 47.9824H19.2213V78.7173C19.3027 81.4965 22.0719 81.7417 22.0719 81.7417V82.4774H10.4249V81.7417C10.4249 81.7417 13.1941 81.4965 13.2756 78.7173V47.9824H7.81854L2.11719 56.2383Z" fill="white"/>
  <path class="title__trends" d="M31.4395 57.0554H37.3852L39.7471 59.9163L39.9915 63.513C40.2358 63.2677 40.6431 62.859 40.8874 62.6138C43.7381 58.9354 47.8105 56.4014 52.453 57.1371L51.1499 64.8208L47.729 59.4259C47.729 59.4259 44.3897 58.8537 41.3761 64.0852C41.0503 64.4939 40.6431 64.9843 40.3173 65.6383V82.5588H31.4395V81.6596C31.4395 81.6596 34.2901 81.6596 34.2901 78.4717V61.1425C34.2901 59.0172 33.3942 57.8728 31.4395 57.7093V57.0554Z" fill="white"/>
  <path class="title__trends" d="M68.1721 56.5654C76.9685 56.5654 80.0635 62.3691 80.0635 65.3118H59.6201C59.3757 66.3745 59.3757 67.6006 59.3757 68.9085C59.783 74.3852 64.2626 78.554 70.2898 78.7992C73.5477 78.9627 76.9685 77.7366 79.0861 74.8756L79.6563 75.5295C77.0499 80.4341 71.7558 82.8046 66.4617 82.8046C59.6201 82.8046 53.43 77.7366 53.3486 69.9711C53.1857 62.1239 59.9459 56.5654 68.1721 56.5654ZM59.8644 63.9222H74.1993C74.1993 63.9222 73.7106 57.5463 68.1721 57.4646C64.0997 57.4646 61.0047 59.9986 59.8644 63.9222Z" fill="white"/>
  <path class="title__trends" d="M82.2627 81.8232C82.2627 81.8232 85.0319 81.7415 85.0319 78.5536V61.1426C85.0319 59.0173 84.136 57.8729 82.2627 57.7094V57.0555H88.2084L90.5704 59.8347L90.8147 64.167C91.8736 61.8782 94.3984 56.7285 99.6111 56.7285C103.928 56.7285 107.674 59.753 107.674 66.2106V78.4718V78.5536C107.674 80.5971 108.57 81.7415 110.444 81.7415V82.4772H101.566V66.2923C101.566 61.3878 100.344 59.3443 97.7378 59.3443C94.0727 59.3443 91.8736 64.0853 91.0591 66.2106V78.7988L94.2355 82.5589H82.2627V81.8232Z" fill="white"/>
  <path class="title__trends" d="M129.095 59.8353V50.5168C129.095 47.3288 126.326 47.0836 126.326 47.0836V46.4297H132.271L135.204 50.0263V78.4725C135.204 81.0065 137.24 81.7422 138.054 81.7422V82.4778H132.19L129.909 80.1891L129.584 77.7368C128.688 79.1264 126 82.7231 121.113 82.7231C108 82.7231 108.814 57.5466 122.986 57.5466C125.43 57.6283 127.629 58.4457 129.095 59.8353ZM129.095 76.5107V62.3693C128.606 60.898 126.407 59.3449 124.127 59.3449C115.9 59.3449 115.656 80.4343 123.149 80.4343C125.837 80.516 128.036 78.2273 129.095 76.5107Z" fill="white"/>
  <path class="title__trends" d="M141.557 64.0036C141.557 59.1809 146.932 56.6469 151.249 56.6469C153.855 56.6469 156.054 57.0556 158.416 57.7913L161.186 56.4834V65.8837L154.1 58.0365C153.204 57.7913 152.308 57.6278 151.33 57.6278C148.317 57.6278 145.792 59.2626 145.792 61.4696C145.792 67.8455 162.407 67.0281 162.407 75.4475C162.407 79.5346 158.661 82.9677 152.796 82.9677C149.783 82.9677 146.688 82.0686 144.57 81.3329L141.882 82.3956L141.964 73.1587L148.887 80.8425C150.353 81.4147 151.738 81.7416 152.959 81.7416C156.136 81.7416 158.009 79.9433 158.009 77.7363C157.846 72.0961 141.557 73.404 141.557 64.0036Z" fill="white"/>
  <path class="title__year title__year--1" d="M168.271 67.1913C168.271 66.9461 168.271 66.5373 168.271 66.5373C171.937 64.739 173.484 64.739 173.484 64.739C176.661 64.4121 180.733 65.8017 180.733 68.9896C180.733 72.5045 177.068 76.2646 172.262 79.5343H179.511L181.14 78.7986L180.163 82.477H168.597L168.271 81.7413C174.136 77.5725 177.557 72.668 177.557 68.9896C177.557 66.2104 175.602 65.4747 173.728 65.4747C173.158 65.4747 172.833 65.4747 172.262 65.6382C171.774 65.8017 168.271 67.1913 168.271 67.1913Z" fill="white"/>
  <path class="title__year title__year--2" d="M177.476 91.7147C177.476 91.4695 177.476 91.0608 177.476 91.0608C181.141 89.2625 182.688 89.2625 182.688 89.2625C185.865 88.9355 189.937 90.3251 189.937 93.513C189.937 97.0279 186.272 100.788 181.467 104.058H188.715L190.344 103.322L189.367 107H177.801L177.476 106.265C183.34 102.096 186.761 97.1914 186.761 93.513C186.761 90.7338 184.806 89.9981 182.933 89.9981C182.362 89.9981 182.037 89.9981 181.467 90.1616C180.978 90.2434 177.476 91.7147 177.476 91.7147Z" fill="white"/>
  <path class="title__year title__year--3" d="M189.774 64.8213C193.764 64.8213 198 67.764 198 73.8946C198 79.1261 194.416 82.641 190.099 82.641C186.108 82.641 181.873 79.8618 181.873 73.6494C181.873 68.4997 185.457 64.8213 189.774 64.8213ZM191.81 81.6601C192.461 81.4966 196.208 79.8618 194.66 72.7502C193.113 65.4752 188.715 65.7204 188.063 65.8839C187.412 66.0474 183.665 67.764 185.131 74.9573C186.76 82.2323 191.158 81.8236 191.81 81.6601Z" fill="white"/>
  <path class="title__year title__year--4" d="M196.615 89.2617V105.038C196.615 106.591 198 106.673 198 106.673V107H192.217V106.673C192.217 106.673 193.602 106.591 193.602 105.038V93.4306C193.602 91.7957 191.565 91.5505 191.565 91.5505V91.2235L196.615 89.2617Z" fill="white"/>
  <path class="title__line" d="M173.973 91.3877H0V92.0416H173.973V91.3877Z" fill="white"/>
</svg>
